<svg xmlns="http://www.w3.org/2000/svg" viewBox="0 0 797.57 616.01"><defs><style>.cls-1{fill:#020101;opacity:0.92;}.cls-2{fill:#901a18;stroke:#901a18;}.cls-2,.cls-3,.cls-4{stroke-miterlimit:10;opacity:0.68;}.cls-3{fill:#870a19;stroke:#870a19;}.cls-4{fill:#e04c12;stroke:#e04c12;}</style></defs><g id="Capa_1" data-name="Capa 1"><path class="cls-1" d="M740.37-.49l-10,.45a5,5,0,0,1-3.89.86c-1.14-.19-2.28-.37-3.43-.54-25.75,1.07-51.5,1.61-77.22-.57L163.41.75h0c-.23.07-.47.12-.71.17l-.17,0a4.93,4.93,0,0,1-.78.06h-33.9a5.34,5.34,0,0,1-1.37-.18L.64,1.1V43.58A4.63,4.63,0,0,1-.71,47l.15,27.88a5.29,5.29,0,0,1,2.72,5.49,241.37,241.37,0,0,0-2.51,32L-.26,129c1,38.05,6.46,76.2.73,114.14,0,.16-.06.32-.1.47L2.41,613h0q9.56,0,19.09.09a5.49,5.49,0,0,1,1.25-.15c11.38,0,22.78-.29,34.18-.56a4.66,4.66,0,0,1,3.11-1.07H179.53a5.87,5.87,0,0,1,.86-.07h1.69a6.54,6.54,0,0,1,1,0H210.9a5.33,5.33,0,0,1,.82.07h43.36c29.78,0,59.55.83,89.31,1.77a4.6,4.6,0,0,1,3.8-1.78h216.1a5.73,5.73,0,0,1,.85-.07c2.06,0,4.13,0,6.19.07h19.23a4.93,4.93,0,0,1,2.67.73l1.33.08a4.86,4.86,0,0,1,2.78-.81H633.6a5.69,5.69,0,0,1,1-.07l2.12.07h13.13a5.19,5.19,0,0,1,2,.4c41.68.81,83.39-.45,125.08-.47a5.33,5.33,0,0,1,.82.07h11.89a5.73,5.73,0,0,1,.85-.07,5.66,5.66,0,0,1,.72.07h1a5.32,5.32,0,0,1,1.7.27V269.46a41.46,41.46,0,0,1,0-12V191.36c-.62-52.34-.2-104.69,0-157v-11A134,134,0,0,0,788.75-.6Z" transform="translate(1.49 2.48)"/></g><g id="Capa_4" data-name="Capa 4"><path class="cls-2" d="M795.19,251.4q-.69-22-1-44C793,138.18,794,68.91,794-.35c0-.11-.07-.23-.11-.34H744.67L730.41,0a5,5,0,0,1-3.89.86c-1.13-.19-2.25-.37-3.38-.54-25.82,1.07-51.64,1.61-77.42-.59,10.2,24.29,40.66,105.17,15.46,203.67A308.8,308.8,0,0,1,576.6,349a298.8,298.8,0,0,0-101.84,65.52c-36.65,36.09-71.41,89.21-62.14,100.11,4.41,5.17,16.21-2.18,39.7-9.11,43.37-12.79,63.8-5.62,96.66-9.1,75-7.92,129.58-62.23,139.82-72.8,11.31-11.68,8.44-11.28,65.59-91,16.64-23.22,30.79-42.66,41.13-56.77C792.79,268,793,259.6,795.19,251.4Z" transform="translate(1.49 2.48)"/></g><g id="Capa_3" data-name="Capa 3"><path class="cls-3" d="M744.64-.69,730.39,0a5,5,0,0,1-3.87.86c-1.12-.19-2.25-.37-3.37-.54-27.27,1.13-54.53,1.67-81.74-1l-.52-.08c-61.66,21.29-104,71.33-108.21,128.31-4.15,56.38,29.76,110.26,87.09,138.39,4.91,3.51,74.13,54.67,63.34,129.85C674,459.23,611.85,512.28,530.7,522.21c-17.23-.1-53.27,1.86-87.09,22.21-31.22,18.78-58.91,52.69-49.49,64.92a8,8,0,0,0,1.61,1.57,134.91,134.91,0,0,1,15.17.43h30l4.67-.29c13.48-.77,17.29-.5,29.6.29h86.23a4.55,4.55,0,0,1,3.72-1.7c14.51,0,29,.74,43.47,1.7h22.21a4.38,4.38,0,0,1,3.81-1.7c47.45,1.65,94.91,0,142.37,0a4.56,4.56,0,0,1,3.72,1.7h6.13a4.54,4.54,0,0,1,3.71-1.7,5.37,5.37,0,0,1,1.43.2q.94-293.6,1.88-587.17A130.58,130.58,0,0,0,788.7-.69Z" transform="translate(1.49 2.48)"/></g><g id="Capa_2" data-name="Capa 2"><path class="cls-4" d="M795.21,274.86A39.47,39.47,0,0,1,794,256.94a5,5,0,0,0-2.56-3c-19.48-9-55.72,131-167,189.53-92.17,48.44-157.3-.3-238,58-44.05,31.81-66.65,76.68-78.82,109.86a4.32,4.32,0,0,1,2.87.25l.3.11a5.36,5.36,0,0,1,1.76-.29,4.76,4.76,0,0,1,3,.94q13,.35,26,.75h2.92a4.62,4.62,0,0,1,3.73-1.69h37.59a167.17,167.17,0,0,1,25.12,0H561.42a4.55,4.55,0,0,1,3.72-1.7c14.49,0,29,.74,43.4,1.7h22.27a4.38,4.38,0,0,1,3.82-1.7c47.45,1.65,94.91,0,142.37,0a5.1,5.1,0,0,1,2,.37l10-.13a5.17,5.17,0,0,1,1.24-.22c-.69-100.1,1.26-161.36,3.36-199.77,2-36.11-.11-72.33.91-108.47C794.77,290.17,795.09,281.52,795.21,274.86Z" transform="translate(1.49 2.48)"/></g><g id="Capa_7" data-name="Capa 7"><path class="cls-3" d="M235.78,611.34c-.33-10.8-2.69-22.67-9.63-33-15.37-22.92-40.07-18.83-55.93-37.37-10.57-12.36-19.19-37.09-3.39-92.53,42.69-24.73,54.42-69.91,42.37-89-11.53-18.25-52.36-24.4-89.83,1.78a178.53,178.53,0,0,0-59.32,80.07A187.41,187.41,0,0,0,49.88,528.5c4.41,44.29,14.56,69,26,82.84Z" transform="translate(1.49 2.48)"/></g><g id="Capa_5" data-name="Capa 5"><path class="cls-2" d="M275.31-.61,166.2-2h0a4.63,4.63,0,0,1-.64,1.15l0,0a4.45,4.45,0,0,1-.41.47l0,0a3.8,3.8,0,0,1-.49.41l-.06,0a4,4,0,0,1-.49.3L164,.52a5.53,5.53,0,0,1-.61.24l-.08,0a5.63,5.63,0,0,1-.59.14l-.19,0a5.87,5.87,0,0,1-.74.05H137.36c-10.93,15.75-28,46.28-23.07,82.12,5.59,40.9,37.74,74,44.07,80.32,16.4,16.33,26.48,19.09,31.28,34,6.37,19.84-2.11,44.07-16,59.57-21.8,24.26-42.75,11.3-79.66,33.9C67.28,307.24,53.2,329.31,38,353.11,24.29,374.63,3.8,398.63,4.12,433.43c.4,44.49-1.56,80.16-3.39,104.23C.49,540.85.24,543.94,0,547c-.39,19.16-.83,38.32-1,57.48a28.82,28.82,0,0,0,2.49,6.84c28-.74,56-1.06,83.94-1.12-14.53-23.49-37.11-71.85-22-128.89,13.85-52.27,51.12-80.69,62.71-88.85,24-5,68.18-17.84,106.78-54.69,61.5-58.7,66.75-138.06,69.49-179.42C306.9,90.7,290.21,35.15,275.31-.61Z" transform="translate(1.49 2.48)"/></g><g id="Capa_6" data-name="Capa 6"><path class="cls-4" d="M134.63,128.2A112.67,112.67,0,0,1,116,68.88c-.7-33.24,13.83-57.46,21.28-67.88h-9.41a4.53,4.53,0,0,1-4-2.06,540.32,540.32,0,0,1-63.81.45L58.57-.69H44.8A5.25,5.25,0,0,1,43.11-1a5,5,0,0,1-1.7.28,6,6,0,0,1-.86-.07,5.49,5.49,0,0,1-.84.07H4.13A17.52,17.52,0,0,0,.64,1.23V43.46A4.61,4.61,0,0,1-.75,46.92C.13,54.49,0,58-.4,75a5.25,5.25,0,0,1,2.56,5.39C-6,134.43,8.64,189,.47,243.09a4.89,4.89,0,0,1-.75,2c.45,19.47.92,33,1,35.66.82,24.73-.38,69.87-1.27,110.3a4.69,4.69,0,0,1,1.18,3.26v76.27A4.92,4.92,0,0,1,.05,473c.2.61.43.94.68,1,4.06.36-6.2-79.68,42.37-125.43,18.66-17.57,23.64-42,98.31-44.07,45.93-1.28,85.07-24.77,94.91-55.93C249.84,205.76,210.9,139.88,134.63,128.2Z" transform="translate(1.49 2.48)"/></g></svg>