<?xml version="1.0" standalone="no"?>
<!DOCTYPE svg PUBLIC "-//W3C//DTD SVG 20010904//EN"
 "http://www.w3.org/TR/2001/REC-SVG-20010904/DTD/svg10.dtd">
<svg version="1.0" xmlns="http://www.w3.org/2000/svg"
 width="3264.000000pt" height="2448.000000pt" viewBox="0 0 3264.000000 2448.000000"
 preserveAspectRatio="xMidYMid meet">
<metadata>
Created by potrace 1.16, written by Peter Selinger 2001-2019
</metadata>
<g transform="translate(0.000000,2448.000000) scale(0.100000,-0.100000)"
fill="#000000" stroke="none">
<path d="M0 12240 l0 -12240 16320 0 16320 0 0 12240 0 12240 -16320 0 -16320
0 0 -12240z m19455 9127 c0 -6 14 -16 30 -20 17 -5 37 -13 45 -18 31 -18 66
-32 90 -34 42 -5 80 -24 80 -40 0 -8 8 -16 18 -16 9 -1 28 -3 42 -4 133 -12
223 -2 302 34 32 14 56 18 82 14 23 -4 36 -2 36 6 0 6 7 11 16 11 8 0 12 -4 9
-10 -3 -5 -1 -10 5 -10 20 0 40 -28 40 -54 0 -16 6 -26 15 -26 9 0 17 -14 20
-37 4 -21 15 -50 26 -65 10 -15 19 -31 19 -35 0 -5 8 -20 17 -33 10 -14 19
-34 21 -45 1 -10 11 -28 21 -40 14 -15 18 -30 15 -58 -3 -22 -1 -36 5 -33 13
9 41 -39 41 -72 0 -15 5 -33 12 -40 16 -16 38 -81 38 -114 0 -15 5 -30 11 -34
6 -3 9 -15 6 -25 -3 -10 -1 -22 4 -25 5 -3 9 -14 9 -25 0 -11 6 -22 13 -25 7
-2 13 -26 14 -55 2 -27 10 -63 19 -80 8 -17 13 -37 10 -44 -3 -8 2 -19 10 -26
8 -7 12 -20 9 -30 -4 -11 -2 -19 4 -19 5 0 13 -17 17 -37 4 -21 16 -44 26 -51
12 -9 17 -20 13 -32 -3 -10 -1 -21 4 -24 6 -4 8 -13 5 -21 -4 -8 1 -18 10 -21
18 -7 22 -24 5 -24 -13 0 -122 -71 -127 -82 -2 -5 -10 -14 -17 -22 -8 -7 -11
-16 -8 -20 13 -13 -63 -68 -110 -79 -29 -6 -60 -22 -76 -38 -14 -15 -38 -40
-53 -56 -16 -15 -28 -34 -28 -41 0 -6 -6 -12 -13 -12 -25 0 -49 -121 -27 -135
5 -3 10 2 10 12 0 13 13 22 44 32 48 14 66 9 66 -16 0 -12 7 -14 32 -9 37 7
62 26 35 26 -9 0 -17 5 -17 10 0 6 -9 10 -21 10 -11 0 -18 4 -14 10 3 6 16 5
32 -3 21 -9 27 -9 31 1 2 6 14 12 26 12 13 0 33 9 46 20 13 11 32 20 43 20 23
0 123 34 164 55 36 19 44 6 38 -68 -4 -53 -38 -127 -53 -113 -2 3 1 12 8 21
19 23 8 28 -71 31 -52 3 -69 0 -66 -9 2 -6 13 -11 25 -10 11 1 26 -5 33 -13
11 -14 10 -16 -6 -13 -11 1 -27 -1 -35 -4 -8 -4 -33 -8 -55 -11 -63 -6 -156
-36 -162 -52 -3 -8 -12 -14 -21 -14 -13 0 -12 -3 3 -14 17 -12 20 -11 30 8 7
13 25 24 50 29 22 5 48 13 58 19 16 8 18 6 12 -10 -5 -16 0 -22 24 -27 22 -5
28 -10 24 -26 -4 -14 -14 -19 -39 -19 -41 0 -43 -14 -17 -97 15 -49 19 -53 47
-54 28 0 27 -1 -14 -14 -25 -8 -56 -16 -70 -19 -14 -3 -30 -13 -36 -23 -12
-20 0 -23 90 -22 27 0 52 -5 56 -11 9 -14 50 17 50 37 0 6 4 14 10 18 15 9 39
-48 41 -101 1 -27 7 -58 14 -70 14 -21 49 -182 60 -269 3 -27 8 -142 10 -255
6 -266 13 -429 20 -440 3 -5 2 -11 -3 -14 -5 -3 -5 -36 0 -73 13 -101 17 -412
7 -538 -5 -60 -15 -139 -24 -175 -20 -88 -29 -143 -25 -155 2 -5 3 -21 3 -35
0 -14 2 -19 4 -12 7 17 43 15 43 -3 0 -8 5 -15 10 -15 14 0 59 -51 60 -67 0
-7 4 -13 8 -13 16 0 59 -78 66 -120 6 -36 4 -41 -9 -37 -9 4 -15 1 -15 -7 0
-8 -9 -16 -21 -19 -11 -3 -23 -14 -25 -25 -3 -10 -20 -25 -38 -32 -18 -7 -36
-22 -42 -34 -5 -13 -20 -22 -37 -24 -20 -2 -27 -8 -23 -17 3 -8 0 -17 -6 -21
-8 -5 -9 4 -4 32 5 21 8 48 7 59 0 11 -1 33 -1 50 -1 16 4 31 9 33 6 2 11 8
11 13 0 6 -4 8 -9 4 -5 -3 -12 -1 -16 5 -3 5 -1 10 5 10 8 0 10 13 5 43 -4 28
-3 37 3 28 17 -24 1 80 -20 134 -11 28 -29 58 -41 67 -19 15 -22 27 -23 107
-1 62 2 91 10 91 6 0 5 4 -3 9 -21 13 -25 251 -5 251 15 0 19 33 14 139 -2 67
-13 99 -59 176 -6 11 -14 28 -17 38 -4 9 -10 17 -15 17 -5 0 -9 7 -9 15 0 20
-20 55 -46 80 -11 11 -28 37 -38 57 -9 20 -21 40 -26 43 -16 10 -12 55 5 61 8
4 15 13 15 20 0 8 7 17 16 21 12 4 8 10 -16 24 -17 11 -39 19 -50 19 -11 0
-20 7 -20 15 0 8 -7 15 -15 15 -15 0 -32 43 -26 69 1 8 -3 17 -9 21 -6 4 -14
33 -17 65 -5 46 -3 56 7 50 10 -6 11 8 6 76 -5 46 -12 87 -17 90 -17 10 10 97
32 104 25 8 24 22 -2 30 -11 4 -25 20 -31 36 -5 16 -16 29 -23 29 -7 0 -15 9
-18 20 -3 11 -2 20 3 20 4 0 3 18 -2 40 -6 22 -16 40 -24 40 -8 0 -14 7 -14
15 0 8 -8 23 -17 33 -35 36 -64 83 -58 93 4 5 3 15 -3 22 -5 7 -17 41 -26 77
-10 36 -24 83 -31 105 -7 23 -12 55 -11 73 1 18 0 32 -3 32 -3 0 -6 59 -5 132
1 132 -9 188 -33 188 -7 0 -28 -15 -46 -34 -29 -30 -36 -33 -74 -29 -27 2 -55
-2 -76 -12 -28 -13 -50 -14 -133 -7 -54 5 -115 8 -134 7 -42 -3 -140 16 -140
27 0 5 -12 5 -27 2 -25 -7 -27 -6 -14 9 21 27 7 45 -35 45 -21 0 -40 5 -42 11
-2 6 -17 11 -33 11 -16 0 -29 4 -29 10 0 5 -9 18 -21 28 l-20 19 30 31 c17 17
31 35 31 41 0 6 16 11 35 11 36 0 47 13 19 24 -8 3 -12 10 -9 16 3 5 -5 15
-19 22 -25 11 -36 38 -16 38 6 0 10 18 10 40 0 27 -4 40 -13 40 -9 0 -19 22
-27 57 -11 50 -10 58 4 68 34 26 17 35 -65 35 -77 0 -83 -2 -118 -32 -30 -26
-37 -29 -39 -15 -3 12 -14 17 -42 17 -41 0 -50 13 -50 78 0 30 -2 32 -37 33
l-38 1 43 15 c23 8 42 18 42 23 0 5 -19 15 -42 23 -29 10 -36 16 -21 16 17 1
25 10 32 39 14 50 14 51 -9 45 -11 -3 -20 -2 -20 2 0 9 42 69 52 73 4 2 8 16
8 32 0 16 6 35 13 42 23 22 26 57 15 150 -9 70 -9 97 1 122 7 17 14 55 15 84
3 49 2 52 -20 52 -13 0 -24 5 -24 10 0 6 9 10 20 10 15 0 20 7 20 25 0 17 7
29 23 35 l22 9 -22 0 c-28 1 -31 21 -3 21 11 0 20 4 20 9 0 5 18 12 40 16 40
7 52 19 28 28 -7 2 7 10 32 16 48 13 110 42 110 52 0 21 153 39 165 19 10 -16
25 -12 25 7 0 9 3 13 8 9 4 -4 7 -13 7 -19z m9 -1816 c12 -1 16 -6 13 -16 -8
-20 11 -29 28 -15 13 10 15 8 15 -14 0 -16 5 -26 15 -26 8 0 15 -4 15 -9 0 -5
-33 -16 -74 -25 -41 -10 -76 -23 -79 -30 -3 -8 -17 -11 -37 -8 -21 3 -31 1
-27 -6 4 -5 0 -15 -8 -22 -12 -10 -24 -10 -56 -1 -21 7 -43 10 -47 7 -4 -2
-23 -1 -42 3 -30 6 -35 11 -36 36 -1 39 41 95 70 95 13 0 40 8 61 19 36 17 50
18 189 12z m-200 -418 c35 -30 33 -41 -10 -49 -21 -4 -32 -10 -26 -16 5 -5 27
-5 55 2 26 5 50 9 54 8 5 -1 18 3 30 10 17 9 27 10 41 1 15 -9 24 -6 52 20 37
33 45 37 55 21 3 -5 14 -1 25 10 12 12 26 17 36 13 15 -5 15 -8 2 -17 -31 -23
-48 -108 -44 -222 5 -155 13 -191 42 -198 16 -4 24 -14 24 -29 1 -21 1 -22 15
-3 12 16 12 22 2 28 -8 5 -7 8 6 8 9 0 17 -4 17 -9 0 -5 9 -13 20 -16 11 -3
20 -12 20 -20 0 -7 5 -15 11 -17 19 -6 21 -69 3 -89 -9 -10 -13 -22 -10 -27 3
-5 -6 -22 -19 -36 -14 -15 -25 -32 -26 -39 0 -7 -3 -21 -6 -32 -10 -36 -15
-115 -9 -138 3 -12 19 -37 36 -55 16 -18 30 -40 30 -48 0 -8 7 -14 15 -14 18
0 20 -21 3 -38 -9 -9 -9 -12 0 -12 20 0 13 -17 -10 -25 -22 -7 -22 -8 5 -12
22 -3 27 -8 22 -21 -3 -9 -9 -29 -12 -44 -3 -15 -11 -29 -19 -32 -8 -3 -14
-20 -14 -41 0 -19 -4 -35 -10 -35 -5 0 -10 -18 -10 -40 0 -22 -4 -40 -10 -40
-18 0 -11 -29 10 -42 11 -7 20 -18 20 -25 0 -7 9 -13 20 -13 14 0 21 -9 25
-33 8 -39 -5 -73 -40 -110 -22 -23 -31 -26 -64 -21 -35 6 -39 4 -45 -19 -8
-32 2 -57 21 -57 8 0 30 -11 50 -25 28 -18 33 -26 21 -30 -10 -4 -18 -25 -22
-56 -6 -41 -10 -49 -28 -49 -19 0 -20 -4 -16 -59 2 -33 1 -58 -4 -55 -4 3 -8
12 -8 20 0 8 -9 14 -20 14 -23 0 -25 -17 -5 -44 19 -25 19 -32 0 -40 -8 -3
-21 2 -30 10 -8 9 -15 11 -15 5 0 -6 -21 -11 -50 -11 -49 0 -49 0 -61 39 -7
24 -19 41 -30 44 -11 3 -19 10 -19 17 0 6 4 9 10 5 5 -3 16 8 25 25 l16 30
-36 0 c-39 0 -39 -1 -29 99 6 49 10 61 24 61 13 0 17 -6 13 -20 -3 -11 -10
-20 -15 -20 -5 0 -8 -17 -6 -37 3 -36 5 -38 41 -41 45 -4 46 2 12 88 -14 35
-25 72 -25 83 0 10 -9 21 -20 24 -11 3 -20 9 -20 14 0 5 -16 9 -35 9 -19 0
-35 -4 -35 -10 0 -20 -48 -11 -55 11 -4 12 -12 18 -21 15 -17 -6 -84 21 -84
34 0 6 6 10 13 11 10 0 10 2 0 6 -7 2 -13 10 -13 18 0 7 -17 15 -39 19 -43 6
-50 20 -51 91 0 22 -5 58 -10 80 -7 30 -6 45 5 62 27 40 19 66 -25 87 -30 14
-39 24 -35 36 3 10 -1 20 -9 23 -31 12 -106 149 -106 193 0 17 -6 24 -20 24
-12 0 -25 12 -35 34 -20 41 -17 91 5 91 16 0 16 5 4 98 -4 31 -2 53 5 60 14
14 15 87 1 87 -5 0 -10 7 -10 15 0 10 10 15 30 15 28 0 30 3 31 38 1 20 1 42
0 49 -1 6 3 14 9 18 5 3 10 19 10 34 0 25 5 30 35 35 20 4 65 20 100 37 35 16
68 29 73 29 6 0 13 17 17 38 4 27 14 42 36 55 17 9 37 17 45 17 25 0 15 16
-19 28 -31 11 -33 15 -29 49 3 21 16 52 31 70 24 30 27 32 39 16 10 -15 12
-11 13 23 1 27 4 17 10 -31 6 -57 13 -74 33 -92z m-1330 -2597 c11 -15 30 -38
43 -52 12 -14 23 -29 23 -33 0 -4 9 -19 21 -32 34 -38 81 -109 73 -109 -4 0 4
-12 17 -27 14 -16 42 -53 62 -84 20 -30 43 -61 51 -68 9 -8 16 -22 16 -32 0
-11 4 -19 8 -19 5 0 17 -18 27 -39 10 -22 28 -50 41 -62 13 -12 24 -32 24 -44
0 -12 8 -33 19 -46 10 -13 44 -62 76 -109 32 -47 63 -88 69 -92 6 -4 7 -8 2
-8 -6 0 2 -12 16 -27 14 -16 33 -45 42 -67 17 -41 20 -40 -31 -19 -7 3 -13 0
-13 -6 0 -6 7 -11 16 -11 8 0 12 -5 9 -10 -4 -7 -18 -4 -38 8 -39 24 -178 52
-255 52 -113 0 -390 -62 -487 -109 -22 -11 -47 -22 -55 -25 -18 -7 -43 -22
-89 -55 -27 -19 -33 -21 -28 -8 3 9 3 17 -1 17 -11 0 -56 -32 -93 -67 -38 -37
-55 -43 -37 -13 7 11 15 20 18 20 3 0 23 16 43 35 20 19 41 35 45 35 5 0 22
11 38 25 16 14 34 25 39 25 6 0 -3 -12 -19 -26 -38 -33 -27 -41 18 -12 36 23
46 38 25 38 -5 0 -8 4 -4 9 3 5 21 7 40 4 35 -6 65 9 65 31 0 8 -2 8 -8 0 -10
-15 -52 -28 -52 -16 0 6 20 18 45 28 26 9 54 28 65 41 12 15 20 19 22 11 4
-10 10 -10 30 1 15 7 30 11 36 7 5 -3 18 1 28 9 10 8 29 15 42 15 15 0 22 6
22 19 0 11 10 22 23 26 13 4 17 8 9 12 -19 8 -4 23 24 23 13 0 24 4 24 10 0 5
18 13 40 16 58 9 50 28 -10 22 -27 -3 -54 0 -59 5 -7 7 -15 6 -26 -3 -8 -7
-23 -14 -33 -15 -9 -1 -25 -5 -35 -9 -10 -5 -21 -5 -25 -1 -11 11 31 36 52 31
25 -6 61 34 82 92 10 26 21 51 26 56 4 6 8 31 8 56 0 37 -6 52 -30 78 -16 18
-30 41 -30 51 0 10 -9 30 -20 44 -11 14 -20 30 -20 36 0 6 -5 11 -11 11 -6 0
-8 8 -4 19 4 14 0 21 -15 26 -11 3 -20 12 -20 19 0 7 -13 27 -30 44 -16 18
-30 40 -30 50 0 10 -6 27 -14 37 -8 11 -12 24 -9 31 2 6 -3 29 -11 49 -15 35
-15 39 0 50 10 7 14 17 10 23 -10 17 -26 15 -26 -3 0 -8 -4 -15 -10 -15 -14 0
-12 17 4 48 8 15 17 35 20 45 5 16 9 15 33 -11 16 -16 37 -41 47 -56z m-1424
-31 c0 -20 -12 -31 -67 -60 -38 -19 -75 -40 -83 -45 -33 -22 -131 -60 -139
-55 -5 3 -11 2 -13 -3 -1 -4 -28 -19 -58 -34 -89 -42 -109 -48 -115 -38 -4 6
-11 10 -16 10 -6 0 -7 -5 -3 -11 10 -16 -16 -29 -47 -22 -16 3 -30 0 -34 -7
-6 -10 -1 -11 19 -6 43 11 22 -9 -31 -29 -26 -10 -54 -22 -60 -28 -9 -7 -13
-5 -13 7 0 20 -9 20 -35 0 -20 -16 -20 -16 3 -9 35 10 26 -10 -15 -29 -21 -10
-39 -13 -42 -8 -4 6 -18 5 -36 -4 l-30 -14 28 4 c15 2 27 2 27 0 0 -3 -99 -64
-105 -64 -14 0 -2 20 15 25 11 3 20 11 20 16 0 8 -35 -7 -70 -29 -2 -2 2 -8
10 -13 11 -8 10 -9 -7 -4 -17 5 -22 3 -17 -8 3 -10 -5 -19 -23 -26 -15 -6 -54
-27 -86 -47 -32 -20 -61 -34 -63 -31 -3 2 12 14 32 26 50 30 37 37 -17 9 -57
-29 -56 -28 -39 -39 12 -8 10 -9 -6 -4 -16 4 -23 0 -26 -13 -3 -10 -24 -28
-47 -40 -49 -26 -58 -27 -41 -7 7 8 19 15 26 15 8 0 14 5 14 10 0 13 0 13 -42
-9 -21 -10 -35 -21 -32 -24 3 -3 3 -11 -1 -17 -6 -9 -10 -9 -16 1 -6 11 -11
11 -21 1 -9 -9 -9 -12 2 -12 13 0 13 -2 0 -10 -20 -13 -33 -13 -25 0 3 6 1 10
-4 10 -6 0 -11 -4 -11 -10 0 -5 -9 -10 -20 -10 -17 0 -19 -5 -14 -25 4 -15 2
-25 -5 -25 -6 0 -8 7 -4 17 5 12 3 14 -8 8 -32 -18 -49 -39 -44 -55 3 -10 -5
-26 -20 -40 -16 -15 -25 -19 -25 -10 0 9 -8 6 -24 -9 -26 -24 -41 -77 -27 -95
4 -6 11 -23 14 -37 8 -33 50 -53 79 -38 11 6 34 8 51 5 17 -3 28 -3 24 0 -4 4
8 15 26 24 29 16 33 16 44 1 9 -13 4 -21 -34 -45 -64 -42 -119 -43 -171 -5
-82 60 -71 182 25 255 20 15 48 40 62 54 14 15 40 36 58 46 100 60 127 74 141
74 8 0 38 15 66 34 28 19 74 45 101 58 28 12 56 29 63 36 19 17 35 15 28 -4
-3 -8 -2 -12 4 -9 6 3 10 12 10 18 0 18 27 38 105 78 39 20 96 50 127 68 31
17 63 31 71 31 8 0 20 6 26 14 7 8 24 17 39 21 14 3 46 15 69 26 24 11 49 17
55 13 6 -4 9 -3 5 2 -4 8 92 59 158 84 11 4 54 24 95 44 41 20 81 36 88 36 6
0 12 4 12 9 0 5 11 12 25 15 14 4 28 13 31 21 10 25 34 17 34 -10z m90 -4 c0
-5 -15 -19 -34 -32 -23 -16 -31 -26 -23 -31 7 -4 24 4 39 19 15 15 30 24 33
21 8 -7 -5 -38 -16 -38 -4 0 -23 -12 -41 -27 -18 -16 -59 -41 -91 -58 -32 -16
-67 -38 -77 -47 -10 -9 -62 -40 -116 -69 -253 -133 -407 -222 -442 -256 -8 -8
-28 -21 -45 -30 -18 -9 -46 -27 -63 -39 -17 -13 -34 -24 -39 -24 -4 0 -14 -8
-21 -17 -11 -14 -15 -15 -22 -5 -7 10 -11 10 -22 -3 -11 -13 -10 -15 4 -9 31
12 16 -5 -61 -67 -43 -34 -86 -72 -96 -85 -10 -13 -23 -24 -29 -24 -7 0 -6 5
1 14 7 8 8 17 3 20 -19 12 -33 -20 -22 -50 9 -22 8 -31 -2 -39 -7 -6 -18 -19
-25 -30 -6 -11 -16 -19 -23 -17 -6 1 -9 -2 -5 -7 3 -6 -3 -18 -14 -28 -11 -9
-18 -20 -15 -25 3 -4 1 -8 -5 -8 -12 0 -61 47 -61 59 0 18 14 20 27 3 13 -16
14 -15 10 6 -4 17 1 26 18 34 13 6 26 20 30 32 6 18 8 19 12 4 6 -22 29 -24
37 -3 3 9 0 15 -9 15 -8 0 -15 9 -15 19 0 13 31 44 88 88 48 37 92 72 98 78 6
5 23 19 38 30 16 11 34 25 41 32 7 6 22 9 34 6 12 -3 21 -1 21 6 0 5 -7 8 -15
5 -32 -12 -12 12 33 42 113 75 174 114 178 114 2 0 25 15 51 34 27 19 64 41
83 50 19 9 67 35 105 56 39 22 97 54 130 71 33 18 85 48 115 69 66 44 87 53
92 38 3 -8 15 -5 36 7 23 14 29 22 21 31 -7 9 -1 21 22 43 32 31 49 39 49 22z
m6495 -114 c7 -8 19 -33 26 -57 8 -26 20 -45 31 -48 10 -2 18 -14 18 -26 0
-33 40 -154 67 -205 13 -24 23 -49 23 -55 0 -15 45 -66 59 -66 6 0 10 -4 9 -8
-3 -8 21 -63 49 -112 32 -57 43 -92 47 -147 4 -65 -4 -88 -50 -153 -17 -25
-34 -56 -37 -70 -15 -74 -58 -137 -119 -175 -18 -11 -28 -26 -28 -41 0 -13 -4
-24 -9 -24 -5 0 -7 -17 -4 -37 4 -31 0 -43 -21 -65 -14 -16 -34 -28 -46 -28
-30 0 -25 -15 25 -66 25 -25 45 -54 45 -64 0 -11 10 -22 23 -26 12 -4 35 -17
50 -30 16 -13 33 -24 39 -24 6 0 26 -13 45 -30 33 -30 33 -30 8 -30 -21 0 -26
-6 -31 -40 -4 -22 -10 -40 -15 -40 -5 0 -9 -7 -9 -15 0 -8 -4 -15 -10 -15 -5
0 -10 -6 -10 -14 0 -8 -7 -16 -15 -20 -8 -3 -15 -14 -15 -25 0 -10 -7 -21 -15
-25 -8 -3 -15 -12 -15 -21 0 -30 -65 -94 -102 -102 -19 -4 -28 -12 -28 -24 0
-18 -12 -33 -137 -166 -35 -37 -63 -70 -63 -73 0 -4 -9 -15 -20 -25 -12 -11
-31 -36 -42 -57 -12 -21 -25 -38 -29 -38 -4 0 -18 -14 -30 -31 -22 -31 -22
-32 -4 -45 16 -12 16 -14 3 -14 -22 0 -48 -27 -48 -48 0 -15 2 -15 10 -2 16
25 13 -10 -4 -42 -10 -19 -12 -37 -6 -57 7 -24 5 -29 -6 -24 -10 3 -14 -2 -14
-20 0 -14 -12 -37 -29 -53 -15 -16 -31 -40 -34 -54 -7 -29 -54 -60 -90 -60
-17 0 -32 11 -48 34 -13 19 -44 44 -69 56 -54 26 -103 66 -96 79 4 5 -7 23
-24 39 -16 17 -30 37 -30 46 0 8 -10 25 -23 38 -31 31 -68 85 -66 95 1 4 -3
21 -9 36 -7 16 -13 44 -15 63 -2 29 -5 33 -22 28 -11 -4 -23 -12 -27 -17 -4
-8 -14 -5 -27 7 -23 20 -27 36 -11 36 6 0 10 -7 10 -15 0 -8 6 -15 14 -15 9 0
15 18 19 56 3 31 11 62 16 67 6 6 11 19 11 28 0 10 6 20 13 22 8 4 9 8 1 14
-13 9 4 60 21 61 6 1 12 11 13 23 2 12 10 28 17 35 7 7 15 32 19 55 8 48 -4
69 -28 50 -13 -11 -20 -10 -42 6 -22 17 -33 18 -79 10 -51 -10 -54 -9 -81 19
-18 18 -28 38 -26 51 2 14 -3 23 -17 28 -12 3 -21 13 -21 21 0 8 -5 14 -11 14
-5 0 -7 -4 -4 -10 3 -5 2 -10 -4 -10 -15 0 -23 18 -11 25 5 3 9 18 8 32 -3 27
-30 43 -74 43 -13 0 -32 4 -42 10 -9 5 -29 14 -44 20 -18 6 -28 17 -28 30 0
14 -7 20 -23 20 -13 0 -29 6 -36 13 -11 10 -14 10 -18 0 -8 -21 -32 -15 -26 6
5 20 -39 60 -45 41 -2 -5 -10 -10 -19 -10 -9 0 -12 6 -9 18 4 12 -3 21 -27 31
-17 8 -35 19 -40 25 -4 7 -10 1 -14 -13 -6 -24 -6 -24 -14 -3 -5 13 -17 22
-28 22 -26 0 -37 18 -16 26 29 12 -5 24 -66 24 -41 0 -60 5 -70 17 -12 15 -12
16 5 10 14 -6 17 -4 12 8 -4 10 1 15 14 15 11 0 20 4 20 9 0 17 -43 41 -73 41
-23 0 -26 3 -19 18 14 27 -1 67 -26 70 -14 2 -22 10 -22 23 0 27 60 81 80 73
27 -13 290 -16 290 -4 0 6 -13 23 -30 38 -30 27 -30 28 -10 45 24 20 37 22 43
5 3 -10 9 -10 26 0 12 7 21 8 21 2 0 -5 5 -10 10 -10 6 0 8 10 5 23 -6 21 -4
22 52 19 32 -2 62 -8 68 -13 11 -11 105 -12 105 -1 0 12 179 15 194 3 23 -19
126 -6 181 23 35 18 64 26 95 25 25 -1 56 2 69 6 17 6 22 5 17 -3 -4 -7 -1
-12 9 -12 8 0 23 -5 33 -11 14 -9 31 -8 72 4 48 14 56 14 70 2 11 -10 38 -15
78 -15 62 0 62 0 58 26 -3 15 -7 28 -10 31 -15 15 -297 18 -346 3 -36 -10 -77
-14 -68 -5 19 20 270 44 446 44 44 0 58 4 79 26 15 15 26 37 27 55 1 16 4 30
8 30 13 0 50 45 64 78 11 24 21 32 39 32 18 0 25 5 25 20 0 11 4 20 8 20 5 0
21 22 35 48 15 27 38 54 52 60 23 10 26 17 20 41 -4 20 0 42 13 68 19 37 19
62 -1 74 -5 4 -6 13 -1 20 15 25 15 58 -1 86 -10 18 -14 21 -11 8 3 -11 1 -27
-4 -35 -7 -10 -10 7 -10 58 0 57 3 72 15 72 20 0 19 12 -5 38 -29 30 -24 48 5
19z m-4665 -77 c11 -11 27 -20 35 -20 8 0 15 -4 15 -9 0 -5 10 -11 23 -13 12
-2 21 -7 19 -12 -2 -5 30 -25 71 -46 41 -20 91 -53 112 -73 21 -20 43 -37 50
-37 7 0 21 -11 31 -25 10 -14 25 -25 33 -25 19 0 91 -69 91 -87 0 -7 7 -13 15
-13 9 0 15 -6 14 -12 -3 -27 2 -38 17 -38 9 0 18 -9 21 -20 3 -11 14 -20 24
-20 33 0 21 -25 -18 -39 -33 -12 -162 -112 -171 -134 -2 -4 -9 -13 -15 -20
-25 -27 -77 -96 -77 -103 0 -3 -18 -33 -40 -65 -44 -65 -47 -80 -25 -133 15
-36 27 -256 13 -256 -13 0 -19 41 -18 118 2 87 -14 140 -54 182 -31 33 -34 70
-7 94 19 17 20 17 31 -4 9 -17 14 -19 26 -9 8 7 13 17 11 23 -6 16 12 48 23
41 5 -3 12 7 16 22 4 15 13 36 21 45 8 9 12 22 8 28 -9 15 13 40 31 33 8 -3
14 1 14 9 0 24 -24 68 -37 68 -7 0 -13 5 -13 10 0 14 -41 -7 -57 -29 -6 -9
-13 -14 -15 -11 -2 3 -17 25 -33 50 -15 25 -46 62 -67 84 -43 44 -53 71 -45
124 7 42 2 54 -30 71 -13 6 -23 18 -23 26 0 8 -11 22 -24 31 -14 8 -28 30 -32
47 -3 18 -15 44 -25 58 -16 23 -17 32 -7 60 18 53 36 61 68 29z m4178 -1 c2
-5 9 -9 16 -9 6 0 19 -9 29 -20 18 -22 22 -35 8 -26 -5 3 -11 -1 -15 -9 -8
-23 -25 -18 -38 10 -17 37 -28 13 -28 -62 0 -65 7 -77 35 -66 15 5 15 8 -6 24
-20 15 -22 22 -13 36 19 31 57 44 87 30 15 -6 26 -16 25 -22 -1 -5 4 -23 11
-39 10 -26 8 -36 -16 -84 -15 -30 -38 -61 -51 -70 -21 -14 -25 -13 -54 14
-105 100 -134 139 -144 201 -6 37 -3 45 20 66 43 40 123 55 134 26z m1138
-1169 c9 0 12 -4 9 -10 -3 -5 0 -7 8 -4 8 3 21 -1 28 -8 8 -7 26 -21 41 -30
14 -10 32 -33 39 -53 7 -19 17 -35 22 -35 5 0 7 -10 5 -23 -3 -23 29 -75 68
-112 11 -11 27 -31 34 -44 18 -34 15 -133 -6 -176 -16 -35 -16 -37 5 -59 13
-13 32 -26 44 -29 12 -3 38 -11 57 -18 19 -6 42 -14 50 -16 13 -4 13 -5 0 -13
-12 -7 -7 -11 18 -16 17 -4 32 -12 32 -20 0 -7 9 -16 20 -19 11 -3 20 -10 20
-15 0 -11 45 -60 54 -60 13 0 86 -83 86 -97 0 -7 3 -13 8 -13 4 0 12 -9 17
-19 24 -48 71 -110 83 -111 6 0 12 -11 12 -24 0 -14 5 -28 10 -31 6 -3 10 -15
10 -25 0 -13 5 -17 15 -14 11 5 13 2 9 -10 -3 -9 0 -23 7 -32 20 -24 22 -255
3 -321 -9 -29 -20 -53 -25 -53 -5 0 -9 -6 -9 -14 0 -26 -58 -64 -137 -90 -107
-35 -168 -35 -131 2 9 9 7 12 -10 12 -13 0 -34 11 -47 25 -14 13 -25 19 -25
13 0 -6 -11 1 -25 17 -21 22 -24 30 -14 41 10 12 8 16 -9 21 -12 3 -22 9 -22
14 0 18 22 8 68 -30 42 -34 54 -39 105 -40 l58 -2 -17 25 c-9 15 -21 26 -28
27 -6 1 -31 2 -56 3 -36 1 -45 5 -44 18 1 14 -4 16 -27 11 -22 -4 -29 -2 -29
10 0 8 -7 20 -15 27 -11 9 -14 22 -10 42 5 23 3 29 -17 37 -13 5 -31 18 -41
29 -10 11 -29 23 -42 26 -26 7 -98 89 -109 124 -4 12 -14 22 -23 22 -9 0 -35
18 -57 40 -88 86 -85 86 -61 7 8 -26 12 -54 9 -61 -3 -7 -7 -87 -9 -177 -5
-229 -18 -351 -38 -382 -9 -15 -17 -34 -17 -43 0 -9 -6 -30 -14 -47 -42 -98
-41 -132 13 -234 40 -78 49 -117 41 -188 -4 -36 -1 -91 7 -140 28 -165 34
-212 38 -300 2 -49 4 -90 5 -90 1 0 4 -17 6 -38 1 -21 8 -45 15 -53 8 -9 8
-18 2 -26 -6 -7 -15 -35 -22 -62 -19 -77 -61 -122 -209 -223 -18 -13 -51 -40
-73 -60 -23 -21 -47 -42 -55 -46 -8 -4 -14 -15 -14 -24 0 -9 -11 -26 -25 -39
-28 -26 -34 -64 -10 -64 16 0 85 65 85 81 0 5 7 9 15 9 8 0 15 6 15 13 0 6 13
18 29 25 16 7 38 20 49 30 11 9 39 33 62 52 125 105 213 218 190 245 -7 9 -5
16 5 25 13 10 15 9 15 -8 0 -11 6 -25 14 -31 7 -6 16 -28 19 -49 3 -20 11 -68
17 -105 11 -77 25 -108 69 -155 27 -29 31 -41 31 -89 0 -48 5 -63 42 -119 23
-35 46 -64 50 -64 4 0 8 -8 8 -19 0 -10 7 -24 16 -32 17 -14 49 -70 46 -81 -1
-3 5 -29 14 -57 14 -47 22 -110 24 -172 0 -20 9 -29 39 -42 45 -20 61 -52 66
-133 2 -27 15 -110 29 -184 14 -74 26 -147 26 -162 0 -15 4 -28 9 -28 4 0 6
-11 3 -25 -2 -14 -7 -25 -10 -25 -5 0 -67 45 -120 86 -33 26 -58 34 -108 36
-22 0 -57 9 -80 20 -25 12 -91 24 -173 33 -138 14 -176 24 -100 26 41 1 42 2
13 8 -17 4 -36 11 -42 15 -7 4 -12 2 -12 -3 0 -6 -21 -12 -47 -12 -28 -1 -37
-4 -23 -6 58 -11 41 -23 -31 -23 -41 0 -131 -7 -199 -15 -112 -14 -126 -14
-136 0 -17 23 -36 18 -32 -7 2 -15 -2 -22 -10 -20 -8 1 -40 -4 -73 -12 -64
-17 -89 -13 -90 13 0 12 -2 11 -8 -4 -5 -11 -7 -23 -5 -27 3 -4 0 -9 -6 -13
-6 -3 -13 0 -16 8 -3 9 -21 15 -51 15 -25 1 -54 4 -65 7 -10 4 -25 1 -33 -5
-20 -16 -101 30 -83 48 9 9 7 15 -8 26 -27 20 -14 28 27 14 78 -26 89 -31 89
-45 0 -32 25 -4 30 33 6 39 6 40 -27 38 -19 0 -41 7 -53 18 -10 10 -24 18 -30
18 -15 0 -49 41 -50 58 0 6 6 12 13 12 7 0 18 13 24 30 6 16 8 29 5 28 -21 -2
-32 4 -32 17 0 8 -5 15 -11 15 -5 0 -8 4 -4 10 3 5 15 6 28 1 15 -6 33 -3 59
10 20 10 39 15 42 10 3 -5 -2 -12 -11 -15 -11 -5 -13 -10 -6 -17 12 -12 225
12 281 32 32 11 59 43 44 53 -9 5 -134 -25 -142 -35 -9 -11 -69 -19 -99 -13
-25 5 -29 10 -28 38 1 25 -7 41 -34 65 -29 28 -31 32 -12 28 12 -3 27 1 34 9
6 8 8 14 3 15 -5 0 1 4 14 9 26 11 29 35 6 44 -13 5 -14 9 -4 21 10 12 6 20
-22 45 -18 17 -27 30 -19 28 7 -2 16 3 18 10 3 6 0 12 -7 12 -6 0 -8 5 -5 10
3 6 0 13 -9 16 -8 3 -17 25 -21 53 -5 34 -12 49 -28 56 -25 12 -35 35 -14 35
8 0 20 6 26 14 9 11 8 18 -4 30 -9 9 -21 16 -26 16 -5 0 -9 4 -9 9 0 4 12 6
28 3 l27 -4 -22 22 c-20 21 -23 22 -38 6 -9 -9 -31 -23 -48 -30 -18 -8 -52
-33 -77 -56 -84 -79 -225 -218 -310 -307 -79 -81 -119 -126 -259 -288 -29 -33
-59 -75 -68 -95 -73 -163 -129 -269 -204 -385 -25 -38 -59 -95 -77 -125 -43
-76 -61 -92 -187 -166 -60 -36 -132 -82 -160 -103 -58 -43 -214 -146 -265
-174 -32 -18 -79 -49 -105 -69 -60 -48 -90 -68 -107 -74 -11 -3 -84 -70 -162
-148 -78 -77 -170 -161 -205 -186 -111 -79 -102 -63 -91 -161 8 -73 14 -371 8
-479 -3 -56 9 -240 16 -247 3 -3 3 -29 0 -58 -4 -35 -1 -70 10 -107 18 -63 21
-138 6 -138 -12 0 -14 11 -10 63 1 21 -3 43 -8 50 -13 17 -35 115 -29 131 3 7
1 47 -5 87 -6 41 -10 106 -10 146 2 84 -5 92 -76 83 -26 -3 -63 -1 -82 4 -29
7 -44 4 -89 -18 -30 -14 -70 -26 -88 -26 -23 0 -33 -5 -33 -15 0 -8 -9 -15
-19 -15 -11 0 -22 -9 -26 -19 -3 -11 -12 -22 -20 -25 -9 -3 -15 -18 -15 -34 0
-21 -7 -32 -25 -40 -14 -7 -28 -19 -31 -27 -13 -32 -24 -13 -24 40 0 32 -4 55
-10 55 -6 0 -23 12 -37 26 -14 14 -28 22 -32 17 -3 -5 -23 -22 -43 -37 -34
-25 -38 -33 -38 -72 0 -39 -3 -44 -22 -44 l-23 -1 23 -18 c22 -19 31 -61 13
-61 -5 0 -16 -19 -23 -42 -12 -36 -20 -43 -66 -61 -47 -18 -52 -18 -67 -3 -9
9 -23 16 -31 16 -8 0 -13 3 -12 8 4 13 -13 52 -23 52 -5 0 -9 7 -9 15 0 8 -4
15 -10 15 -5 0 -10 -18 -10 -40 0 -24 -5 -40 -12 -40 -6 0 -4 -8 7 -20 17 -19
16 -20 -29 -41 -37 -18 -50 -21 -68 -12 -13 6 -36 14 -53 16 -16 3 -38 9 -47
12 -14 6 -18 2 -18 -15 0 -13 -8 -24 -20 -27 -11 -3 -20 -9 -20 -14 0 -5 9 -9
20 -9 12 0 20 -7 20 -16 0 -15 -20 -16 -65 -4 -5 1 -29 2 -52 1 -36 -1 -43 -4
-43 -21 0 -17 -7 -20 -40 -20 -33 0 -40 3 -40 20 0 17 -7 20 -45 20 -36 0 -52
6 -71 25 -34 34 -44 31 -44 -13 0 -32 5 -41 25 -50 32 -15 55 -15 55 -2 0 6
12 10 28 9 27 -1 27 -1 3 -8 -33 -9 -39 -31 -9 -32 21 0 22 -1 3 -8 -11 -5
-23 -7 -28 -4 -4 2 -32 -3 -63 -12 -31 -9 -59 -13 -63 -9 -3 4 0 9 7 11 15 6
16 43 1 43 -21 0 -39 29 -39 64 0 25 -5 36 -17 39 -10 2 8 2 40 -1 48 -4 57
-2 57 12 0 9 8 16 20 16 11 0 20 -7 20 -15 0 -8 9 -15 20 -15 13 0 20 7 20 20
0 11 -7 20 -15 20 -8 0 -15 9 -15 20 0 11 7 20 15 20 8 0 15 7 15 15 0 8 -5
15 -11 15 -7 0 -9 25 -5 78 6 90 15 132 27 132 5 0 9 18 9 40 0 22 5 40 10 40
6 0 10 33 10 80 0 44 4 80 9 80 5 0 12 26 15 58 3 31 8 79 12 106 5 41 3 52
-12 63 -27 20 -64 17 -64 -6 0 -14 -5 -18 -19 -14 -13 3 -24 -6 -39 -32 -21
-35 -72 -174 -72 -196 0 -6 -6 -25 -13 -42 -7 -18 -31 -81 -52 -142 -35 -100
-39 -121 -42 -232 -3 -109 -2 -123 13 -123 13 0 15 -6 9 -27 -3 -16 -6 -53 -6
-83 1 -30 -3 -62 -9 -70 -5 -8 -10 -10 -10 -5 0 6 -9 -1 -19 -14 -12 -16 -24
-22 -35 -18 -10 4 -14 11 -11 17 3 5 1 10 -4 10 -6 0 -11 -4 -11 -10 0 -5 -8
-6 -17 -3 -11 4 -13 8 -5 11 21 7 2 22 -29 22 -30 0 -42 -20 -11 -20 16 -1 16
-1 0 -14 -12 -9 -14 -16 -7 -23 8 -8 -5 -16 -43 -28 -76 -23 -128 -47 -128
-57 0 -4 -11 -8 -23 -8 -13 0 -32 -9 -42 -20 -11 -13 -31 -20 -53 -20 -19 0
-57 -12 -86 -26 -39 -20 -61 -25 -93 -21 -32 3 -43 1 -43 -9 0 -21 -38 -17
-50 5 -5 11 -10 49 -10 84 0 55 3 65 17 63 9 0 22 8 27 19 6 11 21 34 32 50
12 17 21 32 21 35 -3 15 35 92 48 96 17 7 21 44 4 44 -8 0 -10 20 -7 63 4 45
0 79 -15 122 -10 33 -21 69 -23 80 -11 58 -16 75 -23 71 -4 -3 -7 15 -7 39 1
25 -2 46 -5 48 -4 1 -12 58 -20 127 -14 141 -22 170 -44 170 -9 0 -28 14 -42
30 -13 16 -31 30 -39 30 -8 0 -19 11 -24 24 -5 14 -21 32 -34 42 -14 9 -23 20
-21 25 3 4 -3 14 -15 21 -11 7 -20 18 -20 25 0 19 -33 83 -42 83 -4 0 -8 8 -8
18 0 20 -44 112 -58 121 -11 7 -41 92 -52 146 -4 22 -13 65 -19 95 -12 54 -14
263 -6 475 2 61 1 115 -3 122 -4 6 -28 14 -54 18 -47 7 -48 7 -48 -19 0 -15
-6 -26 -13 -26 -8 0 -22 -8 -31 -19 -18 -20 -62 -25 -73 -8 -28 46 13 109 79
121 22 4 36 12 34 19 -1 7 -1 9 1 5 9 -16 45 -7 50 12 6 21 51 34 94 28 19 -2
23 -8 21 -27 -2 -14 0 -21 7 -17 6 4 16 -8 24 -26 11 -27 11 -74 2 -258 -16
-297 3 -499 49 -545 9 -9 16 -22 16 -30 0 -7 11 -23 25 -36 13 -13 25 -28 25
-33 0 -5 11 -24 25 -42 14 -18 25 -37 25 -42 0 -5 9 -17 20 -27 11 -10 20 -24
20 -32 0 -7 3 -13 8 -13 4 0 13 -13 20 -29 7 -16 24 -41 38 -56 14 -15 23 -33
20 -40 -3 -8 2 -19 10 -25 8 -7 14 -21 14 -31 0 -22 22 -24 67 -8 29 10 35 19
73 114 15 35 22 88 40 295 7 69 15 130 20 135 4 6 8 32 9 59 0 26 3 57 6 68 4
10 10 78 15 151 5 73 13 157 19 187 8 41 7 56 -1 61 -9 6 -8 13 4 26 12 13 18
46 22 123 4 58 11 130 17 160 6 30 12 112 14 182 2 71 5 134 8 142 3 8 -3 40
-14 70 -10 31 -19 63 -19 71 0 9 -7 27 -16 40 -14 21 -14 27 -1 45 17 25 76
70 91 70 6 0 22 12 35 25 13 14 29 25 37 25 7 0 17 6 21 13 10 16 54 34 106
43 20 3 40 10 43 15 3 5 13 9 22 9 14 0 14 -1 -1 -13 -15 -10 -11 -12 28 -9
49 4 58 -8 33 -47 -9 -15 -8 -22 6 -36 13 -13 20 -15 29 -6 6 6 19 11 29 11
17 0 17 2 -2 37 -27 51 -26 55 16 47 24 -4 46 -1 67 9 18 9 40 18 50 21 10 3
15 10 12 16 -4 6 18 10 59 10 36 0 66 4 66 8 0 11 70 33 82 26 4 -3 8 2 8 10
0 18 17 20 39 7 10 -6 25 -4 45 7 31 15 86 22 179 21 32 0 47 4 47 13 0 10 12
12 40 10 32 -3 40 -1 40 12 0 11 9 16 29 16 16 0 31 5 33 12 2 6 17 12 34 14
61 5 89 13 100 28 6 9 14 12 18 8 4 -4 28 -8 53 -8 25 -1 48 -6 52 -12 3 -5
22 -17 43 -25 20 -8 45 -24 56 -35 11 -11 41 -24 66 -27 25 -4 46 -11 46 -15
0 -4 9 -10 20 -13 11 -3 20 -2 20 1 -1 24 -53 57 -73 46 -9 -5 -9 -4 -1 5 9
10 6 19 -12 38 -41 44 -28 73 20 47 16 -7 35 -14 42 -14 8 0 14 -4 14 -10 0
-5 12 0 26 13 14 12 35 24 47 27 12 3 26 15 31 26 5 11 27 28 48 37 44 19 49
34 14 43 -14 3 -27 12 -30 21 -4 9 -13 12 -26 8 -12 -4 -20 -2 -20 5 0 8 -9
10 -25 6 -45 -11 -26 10 25 28 40 14 56 16 83 7 19 -7 41 -9 49 -6 15 6 48
-18 48 -34 0 -4 29 -8 65 -8 45 0 65 3 65 12 0 6 18 20 40 30 44 20 67 41 56
52 -4 4 -10 3 -14 -2 -4 -6 -18 -16 -31 -23 -18 -11 -25 -11 -31 -2 -4 7 -13
9 -20 5 -7 -4 -16 -2 -20 5 -6 9 -12 9 -28 -1 -18 -11 -24 -11 -34 -1 -11 11
-10 12 3 7 12 -5 21 2 30 24 8 17 18 32 24 32 5 1 35 2 66 4 33 1 66 9 80 18
13 10 35 17 49 17 47 0 70 11 70 34 0 11 5 28 10 36 9 13 11 13 20 0 7 -11 12
-12 18 -3 4 6 20 15 35 18 21 6 25 10 17 20 -14 17 4 24 54 21 21 -1 42 4 48
11 8 10 7 13 -3 13 -8 0 -3 6 11 13 30 16 37 13 19 -9 -11 -14 -10 -16 11 -12
16 2 25 9 24 20 -1 14 4 16 22 12 17 -4 26 -1 30 10 4 11 13 14 29 10 17 -4
24 0 28 15 4 15 12 19 39 17 27 -2 34 1 35 16 1 10 -4 18 -10 19 -22 1 27 18
55 18 15 1 31 7 35 14 14 22 61 40 90 34 81 -16 111 -26 147 -47 35 -21 41
-22 75 -10 20 7 47 25 60 39 14 15 26 21 28 14 5 -14 103 24 116 44 4 7 23 15
42 19 19 3 35 10 35 15 0 5 6 9 14 9 7 0 19 7 26 15 7 8 22 15 33 15 11 0 36
12 55 26 19 15 55 38 81 51 25 14 54 33 64 44 10 10 27 19 38 19 11 0 32 11
47 25 26 24 62 53 155 125 25 19 51 45 58 57 6 12 20 24 31 26 11 3 22 15 25
26 3 12 14 21 24 21 11 0 19 3 19 8 0 4 17 25 37 46 23 25 33 41 25 44 -17 5
-4 22 18 22 19 0 50 49 50 81 0 10 9 33 20 52 30 50 35 120 15 202 -9 39 -16
96 -15 128 1 31 -3 57 -8 57 -19 0 -25 97 -8 131 9 19 16 57 16 93 0 34 6 73
14 88 8 15 17 40 21 57 4 17 11 31 16 31 5 0 9 9 9 19 0 11 7 32 15 48 8 15
17 41 20 57 3 16 14 30 25 33 11 3 20 13 20 22 0 9 10 27 23 41 13 14 26 33
30 43 3 9 11 17 17 17 5 0 10 9 10 20 0 13 7 20 19 20 11 0 22 9 26 19 3 11
12 22 20 25 8 3 15 12 15 21 0 8 8 15 19 15 10 0 24 7 31 15 7 8 17 15 22 15
17 0 88 54 88 67 0 7 8 17 18 22 19 10 62 84 62 108 0 8 11 28 25 45 14 16 25
37 25 45 0 17 28 42 48 43 15 0 142 124 142 139 0 11 47 61 58 61 4 0 24 18
45 40 20 22 41 40 45 40 8 0 59 109 68 146 4 13 10 24 15 24 5 0 9 9 9 20 0
11 -6 20 -14 20 -18 0 -76 32 -76 43 0 4 5 7 11 7 8 0 9 11 5 31 -7 36 9 63
31 54 8 -3 21 -5 29 -5z m-4946 -200 c0 -31 8 -43 77 -119 24 -25 43 -49 43
-53 0 -14 -19 -8 -30 10 -8 11 -10 12 -7 2 2 -8 12 -19 24 -24 29 -14 79 -88
56 -85 -20 3 -24 -2 -12 -17 11 -13 9 -15 -12 -11 -13 2 -18 2 -11 0 7 -3 12
-22 12 -48 0 -36 -5 -48 -30 -68 -16 -14 -30 -30 -30 -36 0 -6 -4 -11 -8 -11
-5 0 -35 -26 -67 -57 -54 -53 -58 -56 -71 -38 -13 18 -14 18 -14 -4 0 -17 -4
-22 -16 -17 -10 4 -26 -6 -45 -27 -17 -17 -29 -27 -28 -22 1 6 1 18 0 28 -2
27 -21 10 -21 -18 0 -13 -4 -27 -10 -30 -5 -3 -10 -17 -10 -31 0 -13 -4 -24
-10 -24 -14 0 -13 18 5 76 9 27 25 81 37 119 11 39 24 79 29 90 16 42 21 63
44 170 12 61 29 160 36 221 l12 111 29 -29 c18 -18 28 -39 28 -58z m-2079 28
c0 -10 2 -10 6 0 2 6 9 12 15 12 6 0 8 -6 5 -14 -3 -8 3 -22 14 -32 10 -9 19
-25 19 -36 0 -10 4 -18 10 -18 5 0 14 -18 20 -40 6 -22 15 -40 21 -40 6 0 8
-9 4 -20 -9 -30 4 -60 26 -60 32 0 21 -29 -17 -45 -32 -13 -38 -13 -60 1 -13
9 -24 23 -24 30 0 8 -9 14 -20 14 -12 0 -20 7 -20 17 0 9 -7 24 -15 33 -11 12
-16 42 -17 104 -2 84 -3 86 -28 87 -20 1 -18 3 10 9 19 4 38 8 43 9 4 0 7 -5
8 -11z m470 -75 c0 -11 3 -13 6 -6 8 21 31 -9 38 -51 4 -21 13 -36 21 -36 8 0
14 -6 14 -14 0 -8 9 -17 19 -21 11 -3 23 -15 26 -26 4 -10 10 -19 15 -19 4 0
11 -19 15 -41 4 -23 10 -37 14 -31 10 16 36 -8 49 -45 6 -18 26 -48 44 -68 18
-20 39 -57 46 -82 7 -25 22 -58 33 -72 11 -15 26 -51 34 -81 8 -30 19 -56 25
-58 5 -2 10 -11 10 -20 1 -16 60 -62 80 -62 4 0 11 -18 15 -40 4 -22 11 -40
16 -40 12 0 22 46 16 70 -3 13 1 24 12 30 15 8 19 28 24 124 5 103 8 119 30
148 14 18 27 49 29 68 3 33 5 35 48 38 25 2 46 5 46 5 1 1 4 20 7 42 3 22 3
32 1 23 -4 -13 -16 -18 -45 -18 -22 0 -39 -5 -39 -11 0 -8 -5 -8 -15 1 -8 7
-15 19 -15 26 0 8 -8 14 -17 14 -14 0 -12 4 7 25 30 32 40 32 40 -1 0 -14 3
-24 8 -22 4 2 19 10 34 17 33 17 58 2 58 -34 0 -12 9 -30 20 -40 15 -14 17
-20 8 -26 -9 -6 -8 -10 6 -15 21 -8 36 10 29 37 -3 10 0 19 6 19 6 0 11 -7 11
-15 0 -15 25 -21 33 -7 2 4 2 1 1 -5 -2 -7 4 -13 12 -13 20 0 42 -22 36 -38
-2 -6 2 -12 10 -12 33 -1 190 -262 169 -283 -16 -16 -31 2 -32 41 -2 31 -3 33
-6 9 -3 -16 -11 -31 -19 -34 -9 -3 -20 -16 -25 -29 -4 -13 -15 -24 -24 -24 -8
0 -15 -7 -15 -15 0 -8 6 -15 13 -15 8 0 8 -3 1 -8 -11 -7 -37 -61 -50 -102 -7
-25 -11 -48 -18 -125 -2 -21 -8 -41 -15 -43 -6 -2 -11 -14 -11 -27 0 -12 -7
-28 -15 -35 -8 -7 -15 -23 -15 -36 0 -12 -5 -35 -11 -51 -6 -15 -13 -73 -15
-129 -2 -55 -8 -112 -13 -127 -12 -32 -5 -284 9 -321 5 -15 10 -39 10 -53 0
-15 4 -40 9 -57 5 -17 17 -67 26 -111 9 -44 25 -111 35 -150 42 -158 49 -236
25 -281 l-15 -29 -2 40 c-1 38 -1 38 -5 7 -3 -18 -11 -36 -19 -39 -8 -3 -14
-14 -14 -25 0 -17 -3 -18 -15 -8 -12 10 -15 10 -15 -1 0 -8 -5 -6 -12 6 -6 11
-14 22 -17 25 -14 12 -61 158 -84 260 -6 30 -18 61 -25 69 -9 9 -12 27 -9 48
3 18 1 35 -4 39 -6 3 -8 12 -5 20 3 7 -3 19 -12 26 -9 7 -18 22 -20 33 -2 11
-6 36 -9 55 -3 19 -9 40 -13 45 -4 6 -11 25 -15 43 -4 18 -13 45 -21 60 -8 15
-14 44 -14 65 0 20 -4 37 -9 37 -6 0 -13 21 -17 48 -3 26 -13 59 -20 74 -8 15
-14 47 -14 73 0 25 -4 45 -9 45 -4 0 -14 21 -21 48 -7 26 -17 52 -21 57 -4 6
-15 41 -23 79 -15 65 -42 127 -58 134 -5 2 -8 14 -8 28 0 13 -13 50 -29 81
-36 74 -121 275 -121 288 0 5 -15 48 -34 95 -40 102 -57 169 -50 198 5 17 2
20 -14 15 -16 -4 -21 1 -27 29 -4 18 -20 61 -36 96 -16 34 -29 69 -29 77 0 8
-9 20 -20 27 -13 9 -20 24 -20 44 0 18 -6 34 -14 37 -19 7 -27 57 -10 57 8 0
14 -8 15 -17z m-811 -399 c30 -36 60 -75 65 -88 6 -12 18 -31 28 -40 9 -10 30
-34 45 -54 15 -21 29 -39 32 -42 4 -3 19 -22 34 -43 23 -29 31 -35 42 -26 11
9 14 7 14 -12 0 -13 9 -35 20 -49 22 -29 36 -21 46 27 5 24 1 35 -17 52 -21
20 -22 21 -3 22 15 0 14 2 -6 10 l-25 10 28 16 c27 13 28 16 13 32 -18 19 -12
33 10 24 7 -3 16 -21 20 -40 4 -23 13 -37 25 -40 11 -3 19 -9 19 -13 0 -4 13
-24 30 -45 16 -20 27 -42 24 -47 -4 -6 -10 -5 -15 3 -6 9 -7 -2 -3 -28 6 -39
5 -43 -15 -43 -14 0 -21 -6 -21 -20 0 -22 15 -27 23 -7 3 6 6 2 6 -10 1 -13 7
-23 15 -23 18 0 27 -26 20 -56 -4 -16 -12 -23 -20 -20 -9 3 -14 -2 -14 -14 0
-24 21 -70 32 -70 4 0 8 -7 8 -15 0 -8 9 -32 21 -54 30 -59 19 -69 -21 -21
-19 23 -47 55 -62 72 -16 16 -28 36 -28 44 0 8 -7 17 -15 20 -8 4 -15 11 -15
18 0 6 -9 17 -20 24 -11 7 -20 21 -20 32 0 11 -9 29 -20 40 -11 11 -20 23 -20
28 0 11 -57 62 -69 62 -6 0 -11 9 -11 21 0 11 -14 32 -31 46 -18 15 -29 33
-26 42 2 9 -2 22 -10 29 -7 8 -13 8 -13 2 0 -5 -4 -10 -8 -10 -12 0 -34 68
-26 81 5 9 -1 10 -20 5 -19 -5 -26 -3 -26 8 0 18 -51 76 -67 76 -17 0 -17 27
0 33 8 3 5 11 -10 24 -26 23 -33 93 -10 92 6 0 37 -29 67 -65z m-111 -245 c22
-11 43 -29 46 -40 4 -10 13 -19 20 -19 8 0 22 -11 31 -25 9 -14 23 -25 30 -25
8 0 14 -7 14 -15 0 -9 16 -23 35 -32 19 -9 35 -21 35 -27 0 -15 52 -66 67 -66
7 0 13 -4 13 -9 0 -9 67 -80 130 -138 63 -57 190 -191 190 -200 0 -6 11 -15
25 -21 14 -6 25 -16 25 -20 0 -5 10 -20 23 -34 40 -45 67 -82 80 -110 6 -16
15 -28 19 -28 5 0 8 -6 8 -14 0 -8 4 -16 10 -18 6 -2 5 -9 -1 -18 -8 -11 -12
-12 -15 -3 -3 7 -12 9 -20 6 -8 -3 -14 0 -14 6 0 6 -6 11 -13 11 -7 0 -17 10
-22 23 -6 12 -16 21 -23 19 -7 -1 -12 4 -10 12 3 16 -116 136 -135 136 -8 0
-20 11 -27 25 -8 14 -29 33 -47 42 -18 8 -31 18 -28 23 6 9 -50 50 -70 50 -8
0 -15 5 -15 10 0 6 -6 10 -13 10 -8 0 -36 23 -64 50 -28 28 -60 50 -71 50 -11
0 -31 13 -45 30 -27 32 -70 61 -128 86 -23 10 -39 26 -47 47 -9 24 -15 29 -21
18 -10 -16 -31 -6 -31 14 0 7 6 16 13 18 6 3 -5 6 -25 6 l-38 1 0 89 c0 85 1
90 23 94 41 8 46 7 86 -14z m141 -524 c7 -8 18 -15 25 -15 7 0 18 -7 25 -15 7
-8 17 -12 22 -9 5 3 17 -1 26 -9 9 -8 35 -24 57 -35 22 -11 49 -29 60 -39 11
-11 23 -20 28 -21 20 -5 67 -34 67 -42 0 -5 7 -7 15 -4 8 4 15 1 15 -5 0 -6 6
-11 14 -11 8 0 16 -4 18 -9 2 -5 17 -17 34 -27 38 -24 130 -101 208 -176 33
-32 67 -60 75 -63 16 -5 55 -62 56 -80 0 -5 15 -24 34 -41 22 -21 31 -36 26
-45 -6 -9 -4 -11 8 -6 11 4 20 -1 27 -13 7 -12 7 -19 -1 -22 -5 -2 3 -33 22
-73 20 -44 27 -71 20 -73 -6 -2 -3 -11 9 -20 13 -11 21 -34 24 -67 3 -27 5
-53 5 -56 1 -4 20 -9 43 -13 23 -4 69 -20 102 -36 33 -17 65 -30 71 -30 25 -1
76 -57 81 -90 9 -51 12 -82 13 -108 1 -15 10 -26 29 -32 15 -6 34 -15 42 -20
8 -6 31 -17 50 -26 62 -28 200 -181 248 -274 40 -79 42 -84 25 -102 -17 -19
-18 -19 -25 -1 -5 11 -6 5 -2 -14 3 -18 1 -33 -4 -33 -13 0 -35 -50 -38 -87
-2 -26 4 -39 31 -64 45 -43 28 -77 -22 -46 -7 5 -18 5 -23 2 -6 -3 -13 0 -16
8 -2 7 -11 14 -18 14 -22 0 -76 25 -76 34 0 5 -9 9 -19 9 -11 0 -23 5 -26 10
-3 6 -16 10 -27 10 -12 0 -30 8 -40 17 -23 21 -92 33 -237 40 -123 6 -131 3
-131 -48 0 -17 7 -29 18 -33 9 -3 31 -14 47 -25 17 -11 46 -20 65 -21 l35 -2
-42 -11 c-24 -5 -43 -13 -43 -18 0 -6 121 -21 197 -23 12 -1 25 -5 30 -10 4
-5 -16 -6 -47 -4 -51 5 -57 3 -94 -28 -22 -19 -44 -34 -49 -34 -6 0 -34 -16
-63 -35 -29 -19 -57 -35 -62 -35 -5 0 -15 -7 -22 -15 -18 -22 -98 -75 -118
-78 -9 -1 -35 -15 -57 -30 -22 -15 -45 -27 -52 -27 -7 0 -13 -4 -13 -10 0 -5
-5 -10 -10 -10 -12 0 -60 -33 -98 -67 -14 -13 -30 -23 -36 -23 -15 -1 -96 -75
-96 -89 0 -5 -7 -8 -15 -5 -10 4 -19 -4 -28 -24 -10 -25 -14 -27 -25 -16 -11
12 -10 15 2 20 22 9 20 24 -3 24 -29 0 -51 11 -51 24 0 6 -10 12 -22 13 -13 1
-39 20 -60 44 -29 34 -39 55 -44 96 -3 29 -3 64 0 79 8 31 55 81 127 135 44
33 60 39 101 39 26 0 48 4 48 8 0 16 75 31 238 48 120 13 162 21 162 31 0 11
-44 12 -240 8 -139 -3 -240 -1 -240 4 0 5 -9 11 -20 14 -34 9 -19 90 19 102
11 3 25 22 31 41 7 20 22 40 36 46 15 7 23 17 20 27 -3 10 10 27 33 46 21 17
37 33 35 37 -2 3 4 4 14 1 10 -2 24 3 31 11 8 9 20 16 27 16 8 0 14 5 14 10 0
6 18 10 40 10 22 0 40 5 40 11 0 5 5 7 10 4 6 -3 10 0 10 9 0 8 14 26 30 39
39 33 38 60 -2 97 l-33 29 58 1 57 0 0 -40 c0 -29 4 -40 15 -40 11 0 15 11 15
40 l0 40 40 0 c22 0 40 5 40 10 0 6 18 10 40 10 22 0 40 -4 40 -10 0 -21 17
-8 33 25 16 34 16 37 0 54 -10 10 -28 24 -40 30 -13 6 -23 17 -23 24 0 7 -14
23 -30 37 -71 59 -136 130 -132 143 1 5 -9 7 -23 3 -20 -5 -25 -3 -25 13 0 10
-11 26 -25 35 -14 9 -24 20 -23 24 0 4 -8 26 -18 48 -23 52 -52 63 -164 65
-47 0 -114 2 -150 3 -36 2 -91 4 -122 5 -44 1 -58 5 -58 16 0 11 12 15 43 17
42 1 42 1 6 5 -23 3 -39 10 -43 21 -3 9 -13 27 -22 40 -14 19 -15 22 -1 22 13
0 14 5 4 33 -15 42 -55 97 -70 97 -13 0 -47 35 -47 48 0 4 -13 22 -29 39 -16
18 -32 47 -36 65 -4 18 -12 36 -18 40 -7 4 -5 18 8 42 20 37 45 48 45 21 0 -8
4 -15 9 -15 5 0 14 7 21 15 13 16 46 20 52 8 2 -5 39 -5 83 -2 44 3 62 6 41 7
-22 1 -44 9 -50 18 -8 11 -33 17 -77 20 -120 7 -113 2 -121 75 -3 35 -13 82
-22 105 -15 36 -15 43 -1 77 12 30 13 37 2 37 -18 0 -49 34 -40 43 10 11 19 8
33 -8z m1290 -2044 l24 -7 -28 -19 c-50 -36 -118 -108 -132 -142 -8 -18 -18
-33 -23 -33 -5 0 -11 -13 -14 -28 -4 -18 -25 -43 -61 -72 -31 -25 -56 -48 -56
-52 0 -14 -76 -78 -92 -78 -10 0 -18 -7 -18 -15 0 -9 -11 -20 -25 -25 -28 -11
-35 -22 -7 -14 14 5 14 4 3 -4 -10 -7 -21 -7 -34 0 -26 13 -36 0 -13 -18 11
-7 17 -17 13 -20 -3 -4 -13 1 -22 10 -15 14 -19 14 -56 -4 -21 -11 -39 -25
-39 -31 0 -8 -4 -8 -14 0 -15 13 -49 4 -40 -10 3 -5 -6 -13 -20 -19 -33 -12
-64 -59 -47 -70 18 -11 -2 -22 -25 -13 -14 5 -16 2 -12 -15 5 -16 2 -22 -10
-22 -21 -1 -52 -23 -52 -38 0 -6 -8 -13 -17 -17 -10 -3 -37 -23 -60 -44 -22
-21 -55 -44 -72 -51 -22 -9 -31 -19 -31 -36 0 -14 -6 -24 -14 -24 -8 0 -23
-11 -34 -25 -11 -14 -24 -25 -30 -25 -12 0 -82 -68 -82 -80 0 -5 -9 -11 -20
-15 -10 -3 -30 -19 -44 -36 -14 -16 -29 -29 -35 -29 -5 0 -17 -18 -27 -40 -11
-24 -25 -40 -35 -40 -10 0 -19 -11 -22 -28 -6 -29 -53 -84 -81 -95 -9 -4 -16
-12 -16 -20 0 -14 -44 -57 -59 -57 -12 0 -21 -36 -21 -82 0 -21 -4 -38 -10
-38 -5 0 -10 -10 -10 -22 0 -11 -11 -36 -25 -53 -13 -18 -21 -35 -18 -38 3 -4
-5 -21 -19 -39 -14 -18 -28 -47 -32 -65 -4 -17 -16 -39 -27 -49 -10 -9 -19
-24 -19 -33 0 -9 -9 -31 -20 -49 -11 -18 -20 -41 -20 -52 0 -10 -4 -21 -9 -24
-5 -4 -19 -36 -31 -73 -12 -37 -32 -80 -46 -96 -13 -16 -24 -41 -24 -58 0 -27
-1 -28 -25 -17 -24 11 -30 28 -26 76 1 12 -2 22 -8 22 -5 0 -5 17 1 43 6 23
12 56 14 72 5 56 12 91 27 130 9 22 18 59 21 83 4 24 10 51 15 60 5 9 19 54
32 100 12 45 25 82 29 82 4 0 10 13 13 30 5 21 11 28 21 24 10 -4 23 6 37 30
11 20 25 36 30 36 5 0 9 9 9 20 0 11 6 20 14 20 7 0 20 10 29 23 24 36 94 107
106 107 6 0 11 11 11 25 0 28 44 74 70 75 13 0 13 2 1 9 -11 7 -4 19 32 56 26
26 47 52 47 58 0 7 20 32 45 56 30 30 45 53 45 70 0 20 9 30 40 45 28 13 40
26 40 40 0 12 7 30 15 40 8 11 15 27 15 35 0 9 16 33 35 53 19 20 35 41 35 45
0 5 5 14 12 21 9 9 16 8 30 -5 11 -10 18 -11 18 -5 0 7 7 12 15 12 8 0 23 4
33 9 9 6 29 12 44 15 l27 6 -14 41 c-8 23 -15 45 -15 49 0 14 47 28 61 19 17
-11 190 -1 204 12 5 5 16 9 25 9 9 0 48 30 87 68 93 89 153 142 161 142 4 0
26 18 50 40 23 22 51 44 62 50 11 6 18 15 15 20 -3 6 5 15 19 22 14 6 26 15
26 20 0 15 22 33 65 51 22 10 47 22 55 27 17 10 26 10 60 1z m337 -55 c29 -22
41 -36 37 -48 -6 -22 25 -78 43 -78 8 0 17 -8 20 -17 4 -10 11 -21 16 -25 6
-3 11 -19 13 -34 2 -15 10 -32 19 -36 8 -5 15 -13 15 -18 0 -5 11 -21 25 -36
14 -15 25 -34 25 -43 -1 -14 -2 -14 -11 2 -5 9 -15 17 -21 17 -6 0 -20 10 -32
23 -21 22 -30 25 -96 32 -19 3 -45 7 -58 10 -13 3 -29 0 -37 -7 -20 -18 -143
-106 -242 -173 -29 -20 -78 -56 -108 -80 -30 -25 -59 -45 -65 -45 -16 0 -63
-78 -56 -95 5 -14 1 -17 -34 -19 -14 -1 -16 -8 -19 -62 -1 -12 -14 -38 -31
-59 -16 -20 -27 -41 -24 -46 6 -10 -26 -69 -38 -69 -4 0 -8 -5 -8 -11 0 -6
-23 -43 -51 -81 -175 -235 -201 -281 -214 -368 -3 -24 -10 -49 -15 -55 -5 -6
-11 -51 -14 -100 -3 -48 -9 -91 -13 -94 -5 -3 -9 -17 -10 -31 -3 -38 -14 -103
-20 -120 -3 -8 -7 -26 -8 -40 -8 -80 -26 -211 -34 -250 -27 -127 -43 -438 -31
-597 10 -131 47 -311 70 -338 6 -7 10 -19 8 -27 -3 -17 32 -108 43 -108 4 0 7
-8 7 -17 0 -10 7 -38 16 -62 21 -57 20 -74 -4 -89 -17 -10 -20 -10 -20 3 0 9
-7 18 -15 21 -8 4 -15 17 -15 29 0 13 -7 30 -15 39 -8 8 -15 21 -15 28 0 8 -9
31 -20 53 -11 22 -20 50 -20 63 0 13 -9 43 -20 67 -11 23 -25 87 -31 142 -7
54 -16 102 -20 107 -5 6 -9 18 -9 28 0 10 -4 18 -10 18 -5 0 -10 5 -10 10 0 6
8 10 18 10 14 0 14 2 3 9 -10 7 -12 22 -8 59 3 28 2 64 -3 81 -4 16 -6 32 -3
34 3 3 6 116 8 251 2 135 8 260 14 278 5 18 15 96 21 173 10 138 27 235 42
245 4 3 12 39 18 80 6 41 15 77 20 78 6 2 10 11 10 20 0 10 7 25 15 35 7 11
11 25 8 33 -3 8 -1 20 5 27 6 7 13 24 16 37 5 28 100 216 120 240 8 8 21 31
31 50 10 18 24 40 31 47 7 8 18 30 23 49 5 19 21 44 35 55 14 11 26 26 26 32
1 16 35 57 48 57 12 0 24 29 17 40 -6 9 14 27 34 32 8 2 24 20 34 41 11 21 28
42 38 48 11 5 19 16 19 23 0 7 11 19 25 26 13 7 27 21 30 30 3 9 37 50 75 91
38 41 70 77 70 80 0 3 43 50 97 105 83 85 97 105 105 144 4 25 16 51 25 58 9
6 13 12 9 12 -4 0 -5 4 -1 10 8 13 32 3 82 -34z m-587 -1006 c-14 -26 -13 -30
8 -24 15 5 15 4 1 -8 -16 -13 -34 -44 -63 -105 -8 -18 -20 -33 -27 -33 -6 0
-9 -7 -5 -15 5 -14 -20 -35 -44 -35 -13 0 -4 90 10 104 6 6 10 18 10 28 0 10
5 18 10 18 6 0 10 5 10 11 0 19 72 88 86 82 10 -4 11 -10 4 -23z m7000 -51 c0
-5 7 -9 15 -9 28 0 97 -44 115 -73 14 -22 16 -36 9 -60 -5 -17 -5 -35 0 -41
21 -28 20 -59 -5 -78 -31 -25 -31 -41 1 -58 14 -7 25 -19 25 -26 0 -7 15 -25
33 -40 17 -15 31 -30 30 -33 -1 -4 36 -49 83 -100 46 -51 84 -100 84 -109 0
-19 103 -157 108 -143 2 5 -4 26 -12 46 -14 33 -14 36 1 33 16 -3 113 -177
113 -202 0 -20 30 -76 41 -76 5 0 9 -11 9 -24 0 -13 7 -29 15 -36 8 -7 15 -21
15 -31 0 -24 -21 -69 -32 -69 -5 0 -33 22 -61 49 -35 34 -57 47 -66 42 -10 -7
-8 -13 10 -30 12 -11 26 -21 30 -21 4 0 9 -9 12 -21 3 -12 10 -18 15 -15 6 3
5 -5 -1 -19 -7 -14 -15 -25 -19 -25 -12 0 -9 15 4 28 18 18 -3 14 -24 -5 -24
-21 -34 -11 -12 12 17 17 16 17 -14 10 -27 -5 -32 -4 -32 12 0 11 3 14 8 6 5
-8 12 -8 27 3 17 12 18 16 5 24 -8 5 -18 6 -22 4 -4 -3 -8 0 -8 7 0 8 -4 8
-15 -1 -14 -12 -19 -7 -16 13 1 5 -3 6 -9 2 -18 -11 -43 22 -31 42 6 10 11 14
11 9 0 -6 6 -1 14 9 13 18 14 17 31 -8 19 -30 35 -35 35 -12 0 9 -29 46 -65
82 -50 51 -68 64 -77 55 -15 -15 -31 -16 -23 -1 4 5 -4 27 -18 47 -14 20 -28
47 -32 60 -3 12 -11 22 -16 22 -5 0 -9 6 -9 13 0 18 -43 53 -48 39 -8 -25 -72
-7 -72 20 0 13 33 5 48 -12 11 -13 12 -12 10 5 -2 12 -12 21 -26 23 -12 2 -22
9 -22 17 0 7 -7 16 -16 19 -12 5 -14 1 -8 -16 6 -20 5 -21 -10 -9 -9 7 -16 20
-16 27 0 8 -4 14 -10 14 -5 0 -10 5 -10 11 0 6 7 9 15 5 8 -3 15 -1 15 4 0 6
-13 10 -30 10 -28 0 -45 20 -17 20 6 0 3 7 -8 16 -17 13 -18 16 -5 24 12 8 9
10 -12 10 -22 0 -28 5 -28 23 0 12 -8 30 -17 38 -38 35 -100 105 -105 119 -6
16 8 90 36 196 9 34 16 80 16 101 0 22 3 42 6 46 8 8 34 -3 34 -14z m-1592
-192 c11 -9 11 -13 -5 -25 -10 -8 -13 -16 -8 -18 6 -2 9 -24 7 -49 -3 -36 -1
-45 12 -45 9 0 16 -8 16 -20 0 -10 9 -24 20 -30 11 -6 20 -15 20 -20 0 -6 -9
-10 -20 -10 -25 0 -27 -26 -2 -32 9 -2 60 -1 112 4 231 19 334 7 409 -48 2 -2
5 -17 7 -33 2 -17 15 -58 29 -90 30 -72 31 -93 5 -150 -11 -24 -20 -60 -20
-82 0 -21 -4 -41 -10 -44 -5 -3 -10 -18 -10 -33 0 -60 -79 -132 -144 -132 -37
0 -73 -17 -109 -50 -18 -16 -35 -30 -39 -30 -4 0 -5 -7 -2 -15 4 -9 0 -15 -10
-15 -22 0 -21 -36 1 -45 10 -3 61 -15 113 -26 52 -10 111 -23 130 -28 19 -5
62 -17 95 -26 33 -9 96 -24 140 -33 44 -10 85 -20 91 -24 20 -13 154 -22 154
-10 0 6 8 13 18 15 14 4 14 6 -5 12 -29 9 -31 35 -2 28 11 -3 23 -12 26 -20 3
-8 15 -13 27 -11 11 1 26 -1 32 -5 6 -3 37 -7 68 -8 31 -1 56 -6 56 -11 0 -4
8 -8 19 -8 20 0 95 -76 105 -106 3 -10 16 -24 28 -30 163 -79 348 -177 348
-185 0 -6 4 -8 9 -5 4 3 23 -6 41 -19 19 -14 37 -25 42 -25 13 0 137 -93 205
-154 33 -29 43 -46 43 -69 0 -34 -25 -68 -44 -61 -19 7 -38 -21 -47 -72 -11
-60 12 -106 80 -156 28 -21 53 -38 56 -38 4 0 21 -11 39 -25 18 -14 38 -25 44
-25 7 0 12 -5 12 -10 0 -6 3 -9 8 -8 9 3 86 -43 90 -54 2 -4 10 -8 18 -8 8 0
20 -11 26 -25 6 -14 14 -25 18 -25 30 0 42 -182 16 -232 -17 -32 -55 -156 -85
-274 -28 -109 -51 -147 -161 -264 -52 -54 -95 -106 -96 -114 -1 -9 -8 -22 -16
-31 -7 -8 -26 -31 -42 -52 -29 -37 -142 -136 -208 -181 -46 -32 -313 -189
-354 -208 -19 -9 -34 -20 -34 -24 0 -4 -15 -14 -32 -21 -38 -15 -121 -69 -126
-81 -2 -4 -8 -8 -13 -8 -6 0 -15 -4 -22 -10 -54 -44 -75 -58 -94 -64 -23 -7
-33 -49 -15 -60 5 -3 21 -38 36 -78 15 -40 34 -87 42 -105 8 -17 14 -37 14
-45 0 -7 14 -40 30 -73 17 -33 30 -67 30 -75 0 -9 9 -35 20 -58 11 -22 20 -47
20 -53 0 -20 23 -79 31 -79 4 0 11 -14 14 -32 4 -18 11 -39 15 -48 4 -8 18
-46 30 -85 12 -38 28 -82 35 -96 8 -14 16 -36 19 -50 2 -13 12 -40 22 -59 10
-19 19 -42 20 -50 3 -32 25 -99 34 -105 6 -3 10 -17 10 -30 0 -13 4 -26 9 -29
5 -4 12 -25 16 -49 4 -23 13 -53 20 -67 15 -29 75 -233 75 -255 0 -7 9 -30 21
-49 12 -20 22 -51 24 -69 5 -53 16 -85 31 -91 8 -3 14 -14 14 -25 0 -11 5 -32
12 -48 6 -15 13 -39 14 -51 2 -13 10 -35 18 -48 9 -13 16 -35 16 -49 0 -14 9
-47 21 -72 11 -25 26 -72 32 -104 5 -32 14 -56 19 -53 4 3 8 -6 8 -20 0 -30
22 -119 31 -126 6 -5 9 -18 24 -105 4 -22 13 -54 21 -72 8 -17 14 -38 14 -47
0 -9 4 -16 9 -16 5 0 12 -18 15 -40 3 -22 9 -58 12 -80 3 -22 10 -37 15 -34 5
3 6 -2 3 -10 -3 -8 2 -38 11 -66 9 -28 15 -60 12 -72 -4 -15 -2 -19 12 -15 14
3 16 -1 13 -26 -3 -21 -1 -28 7 -23 7 5 11 -3 11 -22 0 -19 6 -32 18 -37 16
-6 16 -7 -2 -21 -11 -8 -14 -14 -8 -14 7 0 12 -5 12 -11 0 -5 11 -34 25 -64
18 -37 24 -62 20 -82 -5 -19 -4 -24 3 -15 7 11 10 9 15 -8 3 -13 0 -23 -9 -27
-21 -8 -17 -23 6 -23 12 0 21 -7 22 -17 6 -75 12 -108 29 -161 6 -18 15 -30
20 -27 5 4 9 -1 9 -10 0 -9 7 -27 16 -40 9 -14 13 -25 9 -25 -4 0 -2 -7 5 -15
7 -8 12 -37 12 -63 -1 -31 5 -57 17 -76 11 -16 17 -35 14 -43 -3 -8 2 -19 11
-26 12 -9 18 -32 21 -82 3 -60 7 -70 26 -77 16 -6 20 -14 15 -32 -4 -15 -1
-26 7 -29 9 -4 8 -8 -3 -16 -11 -8 -12 -11 -2 -11 7 0 10 -5 7 -10 -3 -6 1
-13 9 -16 22 -8 20 -24 -3 -24 -15 0 -20 10 -26 47 -11 76 -21 93 -52 92 -16
-1 -21 -3 -13 -5 18 -5 18 -111 -1 -156 -10 -24 -17 -28 -50 -28 -22 0 -39 -4
-39 -10 0 -5 -18 -10 -40 -10 -33 0 -40 -3 -40 -20 0 -37 -29 -22 -33 17 -2
21 -3 15 -2 -13 3 -49 2 -53 -44 -97 -26 -25 -60 -51 -74 -56 -15 -6 -27 -18
-27 -26 0 -9 -7 -29 -15 -45 -17 -34 -11 -60 16 -60 10 0 19 -7 19 -15 0 -8
-7 -15 -15 -15 -9 0 -18 7 -21 15 -8 20 -44 19 -44 -1 0 -9 8 -23 18 -30 16
-12 15 -13 -5 -14 -19 0 -24 7 -29 40 -4 24 -12 40 -20 40 -8 0 -15 6 -15 13
-1 6 -7 -22 -14 -63 -7 -41 -13 -65 -14 -52 0 12 -7 22 -15 22 -9 0 -15 -17
-18 -52 -4 -37 -12 -57 -27 -69 -24 -20 -28 -67 -6 -75 8 -3 17 -14 20 -25 4
-10 15 -19 26 -19 29 0 23 -19 -8 -26 -16 -3 -33 -7 -40 -9 -6 -2 -14 1 -17 8
-3 7 -17 -1 -38 -23 -19 -20 -41 -34 -51 -32 -20 4 -23 -14 -3 -25 8 -4 15
-17 17 -28 3 -15 13 -21 42 -23 50 -4 48 -22 -3 -22 -22 0 -40 5 -40 10 0 6
-9 10 -21 10 -16 0 -19 -4 -14 -22 4 -13 13 -33 21 -45 19 -31 19 -31 -26 -49
-22 -9 -40 -22 -40 -29 0 -25 -55 -55 -88 -49 -37 7 -52 -11 -16 -20 18 -5 24
-12 20 -22 -3 -9 -6 -31 -6 -50 0 -50 -25 -44 -36 9 l-8 42 -4 -50 c-5 -73
-12 -78 -104 -70 -54 5 -78 4 -78 -4 0 -6 17 -11 40 -11 22 0 40 -4 40 -10 0
-5 -15 -10 -32 -10 -65 0 -78 -9 -78 -51 0 -28 4 -39 15 -39 11 0 15 11 15 40
0 33 4 40 19 40 15 0 20 -9 23 -46 3 -39 0 -49 -19 -64 -13 -10 -23 -24 -23
-32 0 -19 -38 -40 -61 -33 -17 6 -19 16 -19 91 0 46 4 84 9 84 12 0 71 56 71
67 0 5 19 8 43 6 23 -1 32 1 19 3 -12 3 -27 15 -33 27 -16 29 -14 28 -33 21
-9 -3 -16 -15 -16 -25 0 -12 -7 -19 -20 -19 -11 0 -20 4 -20 10 0 5 9 15 20
22 23 15 27 45 5 50 -12 2 -10 10 10 43 l24 40 1 -42 c0 -24 5 -43 10 -43 6 0
10 14 10 31 0 17 7 55 16 84 14 49 14 57 -1 85 -12 23 -13 35 -6 44 6 7 8 16
4 19 -3 4 -1 13 6 21 7 8 9 25 6 38 -4 16 1 33 15 51 30 38 19 68 -23 64 -18
-1 -36 -6 -40 -12 -5 -6 -7 -4 -4 5 2 9 13 14 25 12 24 -4 31 23 10 31 -9 4
-8 6 2 6 8 1 21 -8 28 -19 9 -15 23 -20 57 -20 38 0 45 -3 45 -20 0 -11 -7
-20 -15 -20 -18 0 -20 -16 -4 -26 6 -3 15 -1 19 6 4 7 24 11 48 9 23 -2 44 0
48 4 4 4 -11 7 -34 7 -49 0 -54 14 -12 38 26 15 30 22 30 64 0 43 2 47 28 51
25 4 25 4 -5 6 -31 1 -32 3 -27 34 l6 32 -22 -25 -21 -25 -17 25 c-27 39 -83
100 -93 100 -5 0 -9 -9 -9 -19 0 -11 -4 -21 -8 -23 -4 -2 -6 -24 -4 -50 4 -44
6 -48 29 -48 14 0 31 7 38 17 7 9 17 13 23 9 17 -10 15 -26 -3 -26 -8 0 -27
-12 -42 -27 -24 -24 -28 -26 -31 -11 -3 15 -14 18 -57 18 -30 0 -57 5 -60 10
-3 6 -15 10 -26 10 -12 0 -19 7 -19 20 0 11 -5 20 -12 20 -9 0 -9 3 0 12 17
17 15 28 -5 28 -16 1 -16 2 2 16 18 13 17 14 -15 8 -19 -3 -40 -7 -46 -9 -6
-2 -16 12 -23 31 -7 19 -16 34 -21 34 -15 0 -42 -82 -30 -90 14 -8 -22 -20
-62 -20 -15 0 -30 -4 -33 -10 -7 -11 -75 -14 -75 -3 0 4 12 19 26 34 19 20 24
33 19 46 -5 10 -7 24 -6 31 1 6 -5 12 -14 12 -9 0 -13 -5 -9 -11 3 -6 0 -15
-7 -20 -20 -13 -29 -11 -29 5 0 14 -20 26 -43 26 -8 0 -8 -3 1 -12 16 -16 -3
-48 -29 -48 -15 0 -19 -5 -15 -15 5 -14 1 -13 -24 2 -22 13 -30 25 -30 45 0
24 4 28 30 28 38 0 38 16 0 38 -22 12 -30 24 -30 45 0 25 -3 27 -41 27 l-42 0
7 -95 c6 -82 5 -95 -8 -95 -9 0 -16 -7 -16 -15 0 -8 5 -15 10 -15 6 0 10 5 10
10 0 6 9 10 20 10 17 0 20 7 20 45 0 75 25 53 32 -29 3 -26 -1 -30 -37 -41
l-40 -13 45 -2 c32 -1 39 -4 23 -8 -13 -4 -32 -15 -43 -24 -11 -10 -20 -13
-20 -8 0 6 -4 10 -10 10 -5 0 -10 -13 -10 -29 0 -32 -14 -49 -25 -31 -5 8 -11
7 -21 -1 -11 -9 -14 -8 -14 5 0 9 -8 16 -19 16 -10 0 -21 7 -25 15 -7 19 -36
19 -36 0 0 -8 7 -15 15 -15 8 0 15 -4 15 -10 0 -5 -7 -10 -15 -10 -8 0 -15 -5
-15 -11 0 -6 16 -9 38 -8 57 4 92 0 92 -10 0 -5 -9 -13 -20 -16 -12 -4 -23
-18 -26 -33 -5 -25 -9 -27 -50 -24 l-44 4 0 79 0 79 -30 0 -30 0 0 -74 c0 -98
-4 -106 -51 -106 -21 0 -39 -4 -39 -10 0 -5 18 -10 40 -10 29 0 40 -4 40 -15
0 -11 -12 -15 -42 -16 -30 -2 -35 -3 -15 -6 24 -4 27 -8 27 -44 0 -28 4 -39
15 -39 11 0 15 12 16 43 2 32 3 35 6 13 7 -47 -5 -79 -27 -72 -11 3 -29 9 -40
12 -17 5 -20 2 -20 -21 0 -19 6 -28 20 -32 22 -6 26 -19 34 -103 3 -30 8 -79
12 -107 5 -37 3 -53 -5 -53 -8 0 -9 13 -5 40 4 27 3 40 -5 40 -6 0 -11 -17
-11 -40 0 -23 -5 -40 -11 -40 -8 0 -9 13 -5 40 3 22 2 40 -3 40 -5 0 -6 15 -2
33 4 17 5 53 3 79 -4 47 -5 48 -38 48 -33 0 -34 1 -34 40 0 32 -4 40 -18 40
-14 0 -17 7 -14 40 3 26 9 40 18 40 10 0 14 12 14 39 0 36 3 40 28 44 19 3 14
4 -15 6 -39 1 -43 3 -43 26 0 23 4 25 40 25 29 0 40 -4 40 -15 0 -11 11 -15
40 -15 l40 0 0 75 0 75 39 0 c22 0 41 -4 43 -9 2 -5 19 -11 38 -14 19 -2 27
-2 18 0 -10 2 -18 9 -18 14 0 5 8 13 18 16 24 9 38 25 46 51 4 12 18 30 32 38
37 25 31 44 -16 44 -29 0 -40 4 -40 15 0 11 -11 15 -40 15 -29 0 -40 -4 -40
-15 0 -8 -4 -15 -10 -15 -5 0 -10 18 -10 40 l0 40 50 0 c38 0 50 4 50 15 0 11
-11 15 -40 15 -36 0 -40 3 -40 24 0 22 5 25 43 28 41 3 42 4 43 41 1 36 1 36
-3 3 -4 -33 -5 -34 -44 -29 -25 4 -39 2 -39 -6 0 -6 -13 -11 -28 -11 -28 0
-29 0 -39 -92 -7 -59 -15 -94 -24 -97 -7 -2 -23 -15 -36 -27 -13 -13 -26 -24
-28 -24 -3 0 -8 18 -11 40 -9 54 -34 54 -34 0 0 -29 -4 -40 -15 -40 -11 0 -15
12 -16 43 -1 38 -2 39 -8 12 l-7 -30 -7 28 c-4 15 -14 27 -23 27 -16 0 -15
-19 2 -64 4 -10 1 -16 -9 -16 -8 0 -17 14 -22 33 -5 25 -8 28 -14 14 -6 -16
-8 -16 -29 -2 -12 9 -22 25 -22 36 0 11 -11 24 -25 31 -30 14 -47 2 -22 -16
35 -26 11 -35 -36 -13 -31 14 -34 25 -9 43 16 13 16 13 0 14 -10 0 -18 5 -18
10 0 6 -7 10 -15 10 -11 0 -15 11 -15 40 0 22 -4 40 -10 40 -5 0 -10 -18 -10
-40 0 -22 5 -40 10 -40 6 0 10 -17 10 -39 0 -23 6 -44 15 -51 19 -16 4 -36
-20 -26 -14 5 -15 9 -5 21 10 13 8 15 -14 15 -17 0 -26 5 -26 16 0 9 -5 14
-12 12 -18 -6 -22 -28 -5 -28 20 0 41 -26 27 -35 -5 -3 -10 -1 -10 4 0 6 -16
11 -36 11 -45 0 -64 19 -64 64 0 29 4 36 20 36 11 0 20 4 20 9 0 13 -18 23
-22 12 -1 -4 -24 -10 -50 -13 -42 -5 -47 -3 -51 16 -4 21 -5 21 -12 -1 -11
-35 -35 -29 -35 10 -1 26 -2 29 -11 15 -5 -10 -16 -18 -23 -18 -7 0 -25 -11
-40 -25 -38 -36 -79 -26 -139 32 l-47 45 -68 -6 c-37 -3 -85 -2 -107 2 l-40 8
30 8 c19 5 31 4 33 -3 2 -6 13 -11 25 -11 21 0 21 1 -4 24 -32 29 -99 44 -99
21 0 -11 -11 -15 -40 -15 -29 0 -40 -4 -40 -15 0 -11 12 -15 45 -15 25 0 45
-3 45 -8 0 -4 -20 -6 -45 -4 -36 3 -45 1 -45 -12 0 -12 10 -16 40 -16 29 0 40
-4 40 -15 0 -11 -11 -15 -40 -15 -27 0 -40 -4 -40 -14 0 -7 -13 -16 -30 -20
-16 -3 -30 -10 -30 -16 0 -6 14 -13 30 -16 21 -5 30 -12 30 -26 0 -17 -3 -18
-15 -8 -11 9 -18 10 -28 1 -8 -6 -17 -8 -21 -4 -4 4 -28 6 -54 6 -26 -1 -37 1
-26 3 19 5 21 10 17 45 -4 25 -2 39 6 39 6 0 11 -7 11 -15 0 -8 5 -15 10 -15
12 0 12 -2 -1 60 -12 58 -24 64 -32 18 -3 -18 -10 -49 -15 -68 l-10 -35 -1 31
c-1 33 -15 44 -57 44 -17 0 -24 6 -24 20 0 15 7 20 28 20 15 0 34 5 42 10 12
8 9 10 -12 10 -26 0 -28 3 -28 40 0 29 -4 40 -15 40 -11 0 -16 -12 -17 -42
l-1 -43 -4 43 c-3 34 -8 42 -24 42 -17 0 -19 7 -19 80 0 64 -3 80 -15 80 -11
0 -15 -12 -15 -42 -1 -43 -1 -43 -15 -18 -11 18 -15 55 -14 135 2 112 -10 165
-38 165 -8 0 -13 12 -13 35 0 21 -5 35 -12 35 -10 0 -10 2 0 8 10 7 12 42 9
145 -2 75 -7 140 -10 144 -17 16 -5 33 23 33 28 0 29 1 18 25 -6 14 -15 25
-20 25 -4 0 -8 7 -8 15 0 7 -8 19 -17 24 -17 10 -17 10 0 11 9 0 17 -6 17 -12
1 -8 6 -6 14 5 16 21 36 22 36 2 0 -8 7 -15 15 -15 21 0 19 18 -11 80 -16 33
-23 62 -20 76 4 13 0 40 -9 60 -16 40 -20 104 -6 104 5 0 11 10 14 23 2 12 8
30 12 40 6 14 2 17 -19 17 -25 0 -26 2 -26 54 0 29 -7 67 -15 82 -8 16 -15 46
-15 67 0 20 -4 37 -9 37 -5 0 -11 18 -15 41 -5 29 -11 39 -20 36 -11 -4 -15 7
-19 41 -5 49 -31 130 -48 147 -7 6 -13 5 -18 -4 -6 -9 -11 -2 -15 23 -10 51
-40 50 -54 -1 l-10 -38 -2 35 c-1 19 -1 47 0 61 1 19 -5 28 -19 32 -12 3 -25
17 -31 32 -6 16 -16 25 -24 22 -7 -3 -19 -1 -27 4 -12 8 -11 12 5 24 19 14 18
16 -12 42 -17 16 -39 35 -49 43 -16 14 -14 15 32 20 l50 5 -42 8 c-24 4 -43
12 -43 19 0 6 -7 20 -17 30 -14 16 -14 18 0 18 8 0 17 -5 19 -10 2 -7 16 -8
43 -1 l40 9 -42 1 c-24 1 -43 5 -43 9 0 5 -18 17 -40 28 -22 10 -40 23 -40 28
0 6 -9 20 -21 32 -22 23 -19 44 7 44 9 0 14 11 14 35 0 34 1 35 39 35 30 0 40
4 43 17 2 12 14 -2 32 -39 16 -32 32 -58 37 -58 5 0 9 -7 9 -16 0 -14 9 -16
55 -12 43 4 58 1 64 -10 7 -13 10 -12 19 5 11 20 6 63 -7 63 -4 0 -12 -5 -19
-12 -6 -6 -15 -9 -19 -5 -3 4 10 23 31 42 32 29 39 43 47 97 10 69 2 201 -12
192 -16 -10 -79 8 -79 22 0 8 -6 24 -12 35 -10 17 -10 23 0 26 18 7 16 130 -2
149 -8 8 -19 14 -25 14 -6 0 -11 18 -11 40 0 29 -4 40 -15 40 -8 0 -15 5 -15
11 0 13 -58 69 -71 69 -5 0 -9 9 -9 19 0 11 -9 23 -20 26 -11 3 -20 13 -20 21
0 8 -9 14 -20 14 -14 0 -20 7 -21 23 l0 22 -11 -22 c-6 -13 -19 -23 -28 -23
-9 0 -22 10 -28 23 -10 20 -11 19 -11 -15 -1 -41 -18 -50 -41 -23 -7 8 -25 15
-41 15 -27 0 -29 3 -29 40 0 37 -2 40 -27 41 -25 0 -23 2 15 16 23 8 42 18 42
23 0 10 -67 23 -81 14 -18 -11 -49 33 -49 71 0 19 5 35 10 35 6 0 11 8 11 18
1 16 2 15 6 -1 4 -14 11 -17 34 -12 18 4 36 2 44 -5 10 -8 33 -10 74 -5 35 4
66 3 77 -4 11 -5 40 -13 66 -16 32 -4 48 -11 51 -23 2 -9 3 -5 1 11 -3 25 -2
26 16 17 11 -6 20 -18 20 -26 0 -8 5 -12 11 -9 6 4 8 13 5 21 -7 18 -1 18 16
1 15 -16 88 -30 88 -18 0 8 50 22 75 21 69 -1 100 -10 109 -29 10 -22 26 -27
42 -12 5 5 18 5 29 1 17 -7 17 -9 3 -9 -37 -2 -16 -21 22 -21 22 0 40 -4 40
-10 0 -5 5 -10 10 -10 10 0 88 -33 124 -52 13 -7 21 -6 26 2 6 9 11 7 19 -7 6
-13 25 -23 52 -27 22 -4 54 -13 70 -21 34 -18 95 -20 103 -2 5 10 7 10 12 0 6
-15 34 -18 34 -4 0 10 78 89 114 115 14 10 26 24 26 31 0 7 15 18 33 24 17 7
49 23 69 36 21 14 46 25 55 25 17 1 17 1 1 14 -18 13 -13 30 5 19 6 -4 34 -5
63 -4 58 3 74 -4 153 -62 33 -25 56 -36 59 -29 2 7 12 12 22 12 10 0 29 13 43
29 14 17 28 27 32 23 4 -4 2 3 -4 16 -10 19 -10 27 1 40 15 18 16 26 5 52 -3
8 -8 53 -11 100 -2 47 -7 93 -11 102 -7 17 -32 123 -40 168 -3 14 -12 54 -20
90 -9 36 -17 77 -20 92 -2 14 -8 35 -14 45 -17 32 -41 91 -41 100 0 16 -25 63
-33 63 -5 0 -6 4 -3 8 3 5 -6 31 -19 58 -14 27 -25 55 -25 62 0 8 -8 26 -19
40 -10 15 -22 42 -26 60 -3 17 -11 32 -16 32 -5 0 -9 7 -9 16 0 22 -52 134
-63 134 -4 0 -5 4 -2 10 8 12 -19 64 -46 89 -12 11 -19 24 -15 29 3 5 -6 32
-19 61 -14 28 -25 57 -25 64 0 7 -15 35 -33 62 -18 28 -41 66 -50 85 -34 65
-44 81 -76 117 -17 19 -31 38 -31 43 0 4 -42 49 -92 99 -117 116 -123 121
-134 121 -10 0 -118 67 -186 115 -21 14 -41 26 -45 26 -13 -1 -23 50 -14 68
15 28 29 84 41 151 22 131 40 193 61 210 29 23 78 216 63 243 -4 7 -4 9 1 5
12 -12 55 81 65 140 5 29 15 66 23 81 8 16 20 65 27 109 8 45 17 79 21 76 12
-7 17 19 12 67 -5 41 -3 48 16 54 15 4 21 15 21 34 0 15 9 36 20 46 11 10 25
35 32 56 6 21 16 37 21 36 6 -1 13 7 15 18 5 26 31 55 49 55 7 0 13 6 13 14 0
8 16 20 35 26 20 7 47 23 60 36 13 13 31 24 39 24 9 0 20 8 25 19 6 11 26 21
51 25 35 5 40 10 40 32 0 19 7 29 30 37 17 6 30 16 30 23 0 6 11 16 25 22 14
6 25 16 25 22 0 7 6 7 18 1 68 -36 160 -60 242 -62 69 -2 92 5 130 39 19 18
40 32 47 32 18 0 16 17 -3 24 -15 6 -15 8 -2 24 18 21 32 54 29 67 -2 6 -4 15
-5 20 -1 6 -5 15 -9 22 -5 7 1 16 14 23 15 8 18 15 11 22 -6 6 -8 23 -5 38 5
28 -20 90 -37 90 -6 0 -10 9 -10 20 0 11 -4 20 -10 20 -5 0 -10 6 -10 14 0 7
-11 21 -25 30 -19 13 -24 23 -21 44 5 30 -9 54 -37 65 -22 8 -13 27 12 27 14
0 16 7 13 38 -3 29 -1 34 8 22 9 -12 10 -11 5 7 -4 15 0 25 12 32 15 9 16 12
3 20 -8 5 -18 7 -22 5 -4 -3 -8 10 -8 29 0 22 -6 37 -15 41 -8 3 -15 10 -15
15 0 22 71 21 98 -2z m2287 -1188 c-3 -10 0 -21 9 -26 8 -4 18 -24 24 -43 5
-19 14 -34 21 -32 6 1 14 -6 18 -15 4 -10 12 -22 20 -26 7 -4 13 -15 13 -22 0
-8 7 -15 15 -15 7 0 18 -6 22 -14 4 -8 29 -24 55 -35 35 -15 49 -27 54 -47 4
-17 3 -29 -3 -31 -7 -3 -7 -12 1 -28 17 -38 26 -30 26 24 0 86 21 73 82 -49
13 -25 26 -47 29 -50 4 -3 21 -32 40 -65 18 -33 37 -61 41 -63 4 -2 8 -10 8
-19 0 -8 8 -27 18 -41 11 -15 31 -52 46 -82 15 -30 35 -67 44 -82 78 -123 96
-168 72 -183 -5 -3 -10 1 -10 9 0 9 -4 16 -9 16 -19 0 -111 92 -137 138 -37
64 -124 195 -138 207 -6 6 -47 62 -89 125 -110 161 -194 283 -204 295 -50 60
-62 78 -57 86 3 5 1 9 -4 9 -5 0 -17 16 -28 35 -10 19 -22 35 -26 35 -5 0 -8
7 -8 16 0 10 6 14 15 10 11 -4 15 1 15 17 0 20 2 19 15 -7 9 -16 13 -37 10
-47z m-7585 -88 c0 -11 5 -23 11 -26 6 -4 8 -13 5 -21 -3 -8 1 -14 9 -14 8 0
15 -6 15 -14 0 -20 52 -119 69 -132 7 -6 14 -26 15 -45 1 -39 16 -68 51 -103
14 -14 25 -32 25 -41 0 -9 6 -23 13 -31 26 -32 33 -41 50 -73 9 -18 17 -45 17
-60 0 -15 8 -36 19 -47 15 -17 18 -32 13 -97 -3 -49 -1 -77 6 -77 5 0 12 -18
14 -40 2 -22 0 -40 -4 -40 -5 0 -8 11 -8 24 0 29 -15 42 -24 21 -3 -8 -12 -15
-21 -15 -20 0 -65 28 -85 53 -8 10 -26 33 -40 50 -14 17 -25 33 -25 36 0 3 -3
5 -6 4 -3 -1 -18 22 -33 51 -16 32 -36 56 -48 59 -11 3 -18 12 -16 19 5 14 -3
26 -49 71 -17 18 -36 51 -43 74 -6 23 -20 49 -32 57 l-21 15 23 19 c22 18 23
23 13 66 -7 31 -7 64 -1 99 6 28 7 67 4 86 -3 18 -2 46 1 62 5 26 10 29 44 29
32 0 39 -4 39 -19z m-181 -664 c33 -8 55 -162 29 -210 -10 -19 -12 -19 -23 -4
-7 9 -16 17 -21 17 -4 0 -24 16 -44 35 l-37 36 13 47 c6 26 16 46 22 45 6 -1
16 5 23 14 12 14 11 15 -9 9 -18 -6 -22 -4 -22 13 0 14 6 21 20 21 11 0 21 6
21 13 1 6 4 2 6 -9 2 -12 12 -24 22 -27z m1532 -329 c9 -16 9 -23 0 -26 -28
-9 -3 -107 31 -117 32 -11 20 -33 -22 -40 -22 -4 -40 -10 -40 -15 0 -9 -86
-30 -120 -30 -26 0 -29 27 -8 81 9 26 15 49 12 52 -3 3 3 12 15 19 12 7 21 17
21 21 0 11 51 62 70 70 25 9 29 8 41 -15z m1037 -268 c29 -21 59 -37 66 -34 8
3 21 -6 31 -23 26 -43 83 -76 121 -70 28 5 38 -1 79 -41 37 -37 58 -48 103
-58 32 -7 99 -22 150 -33 85 -19 189 -26 282 -20 19 2 55 2 80 1 98 -3 210 9
210 23 0 7 14 18 32 24 17 6 39 18 49 27 9 8 32 16 50 16 19 1 44 9 57 19 13
10 29 16 37 13 7 -3 18 3 24 14 21 39 48 34 119 -26 101 -86 175 -167 282
-312 25 -33 61 -82 81 -108 38 -48 97 -159 106 -196 3 -11 7 -45 10 -74 3 -29
9 -55 14 -58 5 -3 9 -12 9 -20 0 -8 19 -40 42 -71 50 -69 118 -196 118 -222 0
-11 -4 -23 -10 -26 -16 -10 -11 -27 22 -80 60 -92 37 -136 -82 -160 -104 -20
-321 -34 -405 -25 -98 9 -120 20 -123 61 -3 35 -22 67 -22 37 0 -11 -6 -15
-20 -11 -11 3 -20 0 -20 -6 0 -6 -20 -24 -45 -39 -25 -16 -43 -31 -40 -34 6
-5 -48 -28 -66 -28 -5 0 -9 7 -9 16 0 14 -7 15 -42 9 -24 -4 -63 -7 -88 -6
-24 1 -41 -1 -37 -5 10 -11 -35 -31 -98 -44 -30 -6 -55 -16 -55 -22 0 -7 -5
-6 -14 1 -11 9 -19 9 -35 -1 -16 -10 -23 -10 -33 0 -20 20 -48 14 -58 -13 -16
-41 -99 -74 -96 -37 1 14 -9 18 -49 20 -27 2 -56 8 -63 15 -19 15 -183 11
-195 -6 -7 -9 -10 -9 -14 1 -6 15 -52 16 -89 2 -20 -8 -29 -8 -35 1 -3 6 -13
9 -20 7 -8 -3 -22 2 -32 10 -15 13 -24 14 -48 5 -22 -8 -29 -8 -30 0 0 8 -2 8
-6 0 -2 -7 -12 -13 -20 -13 -11 0 -14 7 -9 26 8 32 29 54 50 54 9 0 16 6 16
13 0 8 11 24 25 37 15 14 21 26 15 30 -14 9 -1 40 16 40 8 0 14 7 14 15 0 9
12 21 28 27 29 13 97 62 122 88 35 38 74 34 85 -8 6 -24 27 -57 85 -133 12
-15 31 -20 90 -25 96 -7 118 5 75 41 -16 13 -36 24 -42 25 -7 0 -13 5 -13 10
0 6 -6 10 -12 10 -18 0 -110 62 -176 118 -15 12 -52 41 -82 63 -54 40 -160
127 -170 140 -3 3 -15 11 -27 18 -37 19 -80 92 -113 192 -18 52 -34 107 -36
123 -2 16 -8 34 -13 40 -10 12 -58 145 -98 271 -14 44 -31 94 -38 110 -7 17
-16 46 -20 65 -4 19 -13 44 -20 55 -7 11 -16 44 -20 73 -4 28 -11 52 -16 52
-13 0 -11 44 3 58 21 21 52 13 106 -28z m-584 8 c-3 -4 20 -8 51 -8 35 0 71
-7 98 -20 41 -20 97 -63 97 -75 0 -4 12 -22 26 -40 38 -50 48 -96 48 -220 1
-137 -5 -196 -22 -214 -7 -7 -16 -26 -19 -42 -3 -16 -9 -29 -14 -29 -5 0 -9
-13 -9 -30 0 -16 -4 -30 -10 -30 -5 0 -10 -8 -10 -18 0 -10 -4 -22 -9 -28 -17
-17 -61 -103 -61 -118 0 -9 -3 -16 -7 -16 -15 0 -53 -67 -53 -93 0 -15 -7 -30
-15 -33 -12 -5 -15 -26 -15 -100 0 -93 0 -94 -24 -94 -14 0 -28 -4 -31 -10 -3
-5 -28 -10 -56 -10 -27 0 -49 5 -49 10 0 6 -10 10 -22 10 -26 1 -58 22 -58 39
0 6 -6 11 -13 11 -13 0 -33 21 -54 58 -18 30 -16 107 2 126 19 19 19 25 -2 48
-10 11 -30 18 -55 18 -30 0 -38 4 -38 18 0 19 -64 57 -80 47 -4 -3 -14 2 -21
11 -10 12 -10 17 -1 23 22 14 -52 99 -98 112 -24 7 -40 18 -40 27 0 13 -3 13
-18 -1 -14 -13 -21 -14 -30 -5 -16 16 -15 28 3 28 16 0 19 20 9 58 -8 29 -20
28 -28 -3 -4 -14 -11 -25 -16 -25 -5 0 -17 11 -26 25 -9 14 -25 25 -35 25 -14
0 -19 7 -19 30 0 35 -1 35 -41 14 -29 -14 -32 -14 -45 3 -7 10 -14 21 -14 26
0 4 -9 7 -20 7 -17 0 -20 7 -20 40 l0 40 -40 0 -40 0 0 40 c0 22 -4 40 -10 40
-5 0 -10 -12 -10 -26 0 -15 -8 -33 -17 -40 -23 -17 -105 -18 -122 -1 -11 10
-14 10 -18 0 -8 -23 -20 -14 -33 27 -10 32 -18 40 -37 40 -13 0 -34 7 -47 15
-23 15 -66 12 -118 -10 -13 -5 -18 -2 -18 9 0 9 16 22 35 30 19 8 38 22 41 29
3 8 23 18 45 21 35 6 111 56 84 56 -5 0 1 7 14 16 19 14 25 14 32 3 6 -10 9
-10 9 -2 0 17 40 37 51 26 9 -9 140 0 178 12 12 3 21 13 21 21 0 21 28 17 35
-6 7 -21 25 -28 25 -10 0 6 18 10 40 10 22 0 40 5 40 10 0 6 -12 10 -27 10
-32 0 -20 17 15 23 12 2 28 12 36 22 14 19 15 19 35 1 12 -11 21 -14 21 -8 0
7 16 12 38 12 21 0 48 7 60 16 25 17 207 25 252 11 19 -6 21 -6 10 2 -13 9
-12 11 5 11 11 0 39 -5 63 -10 34 -8 46 -7 57 4 15 15 168 20 159 4z m1975
-1668 c52 15 117 -6 179 -56 31 -25 59 -50 60 -55 2 -5 12 -9 23 -9 11 0 19
-7 19 -16 0 -8 14 -28 30 -43 l31 -28 -27 -12 c-19 -8 -23 -15 -16 -24 5 -7 6
-21 1 -32 -4 -11 -8 -36 -8 -56 -1 -49 -29 -79 -74 -79 -29 0 -41 7 -66 37
-17 21 -31 45 -31 54 0 25 -8 27 -52 17 -31 -7 -43 -6 -49 4 -6 8 -9 3 -9 -17
0 -23 -3 -27 -10 -15 -9 13 -10 13 -10 0 -1 -10 -5 -7 -13 8 -7 12 -16 19 -20
16 -4 -4 -7 0 -7 10 0 9 4 15 9 11 15 -9 21 27 12 68 -11 46 -74 114 -113 122
-16 4 -28 10 -28 13 0 4 -13 13 -30 20 -28 13 -42 42 -19 42 5 0 8 4 4 9 -8
14 39 17 117 9 37 -4 81 -3 97 2z m-889 -155 c31 -45 71 -65 133 -65 19 0 30
-7 37 -22 5 -13 9 -19 9 -14 1 6 7 1 15 -10 10 -14 11 -21 3 -26 -19 -12 0
-20 21 -9 11 6 30 7 48 2 l29 -8 -30 -13 c-16 -7 -33 -13 -37 -12 -5 1 -8 -2
-8 -8 0 -6 -7 -10 -15 -10 -9 0 -15 -9 -15 -25 0 -13 -8 -29 -17 -34 -17 -10
-17 -10 0 -11 9 0 17 -4 17 -8 0 -4 20 -14 45 -21 50 -15 56 -25 23 -36 -20
-6 -20 -8 -5 -12 12 -3 17 -15 17 -44 0 -39 0 -39 -39 -39 -32 0 -40 4 -43 20
-3 18 -4 18 -36 3 -19 -9 -29 -19 -22 -23 12 -7 3 -40 -11 -40 -5 0 -9 34 -9
75 0 41 4 75 8 75 5 0 14 11 20 24 12 28 -1 39 -37 29 -17 -4 -21 -13 -21 -44
0 -28 -4 -39 -15 -39 -12 0 -15 -17 -15 -90 0 -90 0 -91 30 -108 16 -9 30 -23
30 -29 0 -8 15 -13 40 -13 l40 0 0 -40 c0 -29 -4 -40 -15 -40 -11 0 -15 -11
-15 -40 0 -29 4 -40 15 -40 25 0 17 -24 -15 -42 -38 -22 -38 -38 0 -38 27 0
88 -45 76 -57 -7 -7 -46 16 -46 28 0 6 -19 9 -45 8 -25 -2 -50 2 -57 9 -7 7
-17 12 -24 12 -6 0 -14 13 -17 29 -5 24 -10 28 -31 24 -18 -4 -28 0 -32 11 -3
9 -12 16 -20 16 -8 0 -14 4 -14 9 0 5 -13 11 -30 14 -21 5 -28 11 -24 22 4 10
0 15 -10 15 -9 0 -16 5 -16 10 0 6 -6 10 -14 10 -8 0 -17 9 -21 19 -3 11 -15
23 -26 26 -10 4 -19 13 -19 21 0 8 -7 14 -15 14 -9 0 -15 9 -15 23 0 30 -10
40 -26 26 -10 -8 -17 -7 -29 4 -8 9 -15 19 -15 24 0 5 -11 24 -23 43 -13 19
-22 40 -20 46 2 6 -8 16 -22 22 -14 7 -28 19 -32 29 -4 9 -15 25 -25 35 -13
13 -18 33 -18 77 0 33 -3 66 -6 75 -4 11 2 19 21 26 15 6 29 19 32 30 8 31 33
24 33 -9 0 -25 5 -29 43 -38 34 -9 37 -11 15 -12 -35 -1 -36 -16 -3 -37 14 -9
25 -23 25 -30 0 -8 9 -14 20 -14 12 0 25 -10 32 -25 6 -14 15 -25 20 -25 4 0
8 11 8 25 0 14 -4 25 -10 25 -5 0 -10 18 -10 40 0 52 -17 79 -44 72 -16 -4
-18 -2 -10 8 18 19 50 3 110 -55 59 -57 84 -65 184 -64 l55 0 -55 20 c-30 11
-62 22 -70 25 -19 6 -76 90 -85 124 -3 14 -11 35 -17 48 -10 18 -8 26 6 40 17
16 18 16 14 -3 -2 -10 7 -29 19 -42 13 -12 23 -31 23 -41 0 -11 7 -22 15 -26
8 -3 15 -12 15 -20 0 -8 9 -18 20 -21 11 -3 20 -10 20 -15 0 -5 13 -8 30 -7
27 2 45 17 20 17 -5 0 -10 5 -10 11 0 7 -11 22 -24 34 -30 28 -47 87 -40 137
8 44 13 42 54 -17z m-90 -959 c12 -33 -6 -148 -26 -159 -8 -4 -14 -16 -14 -26
0 -9 -16 -32 -34 -51 -19 -18 -36 -42 -38 -53 -3 -23 -38 -39 -58 -27 -10 6
-5 16 22 40 25 22 34 38 31 51 -4 12 0 19 9 19 21 0 41 71 29 102 -6 16 -5 34
5 57 8 18 11 37 8 42 -9 15 6 29 32 29 17 0 27 -8 34 -24z m-565 -236 c20 -23
27 -42 26 -77 0 -13 4 -23 10 -23 6 0 8 -14 4 -37 -5 -28 -4 -34 4 -23 8 10
11 11 11 2 0 -7 12 -18 28 -25 15 -6 31 -16 35 -22 5 -5 5 1 2 14 -5 16 -4 21
4 17 6 -4 11 -14 11 -22 0 -8 6 -14 14 -14 8 0 24 -16 36 -35 17 -27 28 -35
51 -35 19 0 28 -4 23 -11 -3 -6 -17 -8 -30 -5 -15 4 -24 2 -24 -5 0 -10 -25
-8 -62 6 -23 9 -37 -57 -20 -99 8 -20 18 -36 24 -36 5 0 7 -8 3 -19 -3 -10 1
-24 10 -31 8 -7 15 -21 15 -31 0 -24 21 -69 32 -69 5 0 7 -4 4 -9 -3 -4 3 -16
14 -26 11 -10 26 -36 32 -58 7 -22 24 -52 40 -67 15 -16 28 -34 28 -42 1 -23
35 -114 50 -132 8 -9 23 -25 33 -34 9 -9 17 -20 17 -25 0 -5 13 -19 29 -33 17
-14 33 -34 36 -44 4 -11 13 -20 21 -20 8 0 14 -9 14 -21 0 -12 10 -31 23 -43
12 -12 31 -39 41 -59 11 -20 22 -37 26 -37 4 0 19 -18 34 -40 16 -25 34 -40
46 -40 11 0 30 -6 41 -12 17 -10 23 -10 26 0 3 6 8 12 13 12 12 0 70 -57 70
-69 0 -6 4 -11 9 -11 5 0 12 -18 16 -40 5 -30 12 -40 25 -40 10 0 21 6 23 13
3 6 6 -3 6 -20 1 -18 5 -33 10 -33 5 0 13 -9 16 -20 4 -13 15 -20 33 -20 23
-1 25 -2 10 -11 -22 -12 -23 -29 -3 -29 8 0 15 5 15 12 0 9 3 9 12 0 9 -9 9
-15 0 -24 -7 -7 -12 -22 -12 -35 0 -19 5 -23 30 -23 25 0 30 -4 30 -25 0 -14
5 -25 10 -25 6 0 10 5 10 10 0 22 21 8 34 -24 8 -18 19 -37 25 -40 6 -4 13
-29 17 -57 4 -27 11 -52 15 -55 5 -3 9 -18 9 -33 0 -15 5 -32 10 -37 6 -6 12
-26 13 -45 1 -19 4 -36 7 -39 11 -10 32 -97 34 -140 1 -25 8 -58 15 -75 8 -16
15 -48 16 -70 1 -22 6 -75 10 -117 6 -68 5 -78 -9 -78 -12 0 -14 -5 -7 -22 15
-37 33 -176 26 -198 -4 -14 -2 -20 8 -20 7 0 20 -18 27 -40 7 -22 17 -40 22
-40 4 0 8 -18 8 -40 0 -33 -3 -40 -20 -40 -11 0 -20 -4 -20 -10 0 -5 -18 -10
-40 -10 -22 0 -40 -4 -40 -10 0 -13 -37 -50 -50 -50 -5 0 -10 -7 -10 -15 0 -8
-4 -15 -10 -15 -5 0 -10 7 -10 15 0 8 -7 15 -15 15 -8 0 -15 9 -15 20 0 13
-10 24 -25 30 -28 11 -34 30 -9 30 32 0 6 24 -27 25 -19 1 -43 6 -54 12 -18
10 -16 12 15 26 19 9 28 16 20 16 -8 1 -21 10 -28 21 -7 11 -19 20 -27 20 -8
0 -15 2 -15 4 0 2 -3 11 -6 20 -4 11 0 16 11 16 17 0 17 1 1 19 -9 10 -21 35
-27 55 -7 25 -17 38 -34 42 -19 5 -30 20 -46 65 -12 32 -26 59 -30 59 -17 0
-9 46 11 68 12 13 20 35 20 57 0 34 1 35 40 35 45 0 49 8 20 35 -11 10 -20 24
-20 32 0 7 -6 13 -12 13 -14 0 -68 63 -68 78 0 5 -18 17 -40 27 -26 12 -40 25
-40 37 0 10 -7 18 -15 18 -9 0 -18 7 -21 15 -3 8 -14 17 -25 20 -10 4 -19 15
-19 26 0 12 -7 19 -20 19 -15 0 -21 9 -26 40 -4 24 -12 40 -20 40 -8 0 -14 -4
-14 -10 0 -5 -18 -10 -40 -10 -29 0 -40 -4 -40 -15 0 -11 -11 -15 -40 -15 -34
0 -40 3 -40 20 0 11 -7 23 -15 26 -8 4 -15 14 -15 24 0 10 7 25 15 34 20 20
19 26 -5 26 -17 0 -20 7 -20 49 0 26 -5 62 -11 80 -9 25 -16 31 -40 31 -28 0
-29 -1 -30 -52 -1 -29 0 -57 1 -63 7 -31 7 -61 0 -84 l-8 -26 -12 33 c-11 29
-14 31 -25 16 -16 -23 -45 -11 -45 18 0 28 -15 53 -31 53 -7 0 -14 7 -16 15
-4 13 -3 13 6 0 9 -12 11 -10 11 11 0 14 -3 29 -7 33 -4 3 -7 21 -7 39 -1 19
-6 31 -13 30 -8 -2 -14 22 -19 67 -7 72 -27 100 -23 33 1 -21 2 -51 1 -68 -3
-45 -22 -10 -22 41 0 23 -4 64 -10 92 -15 83 -15 243 1 253 11 7 11 9 1 9 -27
0 -37 27 -39 100 -1 41 -6 100 -13 130 -6 30 -11 87 -11 125 -1 39 -5 75 -9
80 -7 9 -13 50 -25 175 -12 123 -14 182 -5 205 7 18 5 28 -5 39 -18 17 -19 33
-4 38 8 3 9 10 1 23 -16 32 -32 144 -31 220 0 39 0 75 -1 80 -5 23 1 65 8 65
5 0 17 -9 27 -20z m882 -217 c13 -14 23 -36 23 -48 0 -11 4 -25 10 -31 5 -5
12 -36 16 -69 4 -33 12 -63 18 -68 7 -5 5 -12 -6 -21 -10 -7 -18 -17 -18 -21
0 -4 8 -14 18 -21 16 -13 16 -13 -2 -14 -13 0 -16 -5 -11 -17 15 -35 17 -63 6
-63 -13 0 -15 -32 -2 -46 13 -14 31 -108 21 -114 -5 -3 -11 -46 -15 -95 -3
-50 -8 -114 -11 -143 l-6 -53 -36 7 c-57 10 -62 18 -62 105 0 46 -4 79 -10 79
-5 0 -10 -4 -10 -10 0 -5 -4 -10 -10 -10 -5 0 -10 9 -10 20 0 11 4 20 10 20 6
0 5 10 -2 25 -6 14 -15 25 -20 25 -4 0 -8 14 -8 30 0 17 -4 30 -8 30 -5 0 -14
11 -20 25 -6 14 -8 25 -3 25 13 0 23 39 26 98 1 30 7 57 14 61 8 5 13 36 15
81 1 46 7 75 14 78 7 2 12 23 12 51 0 55 17 111 33 111 6 0 22 -12 34 -27z
m3285 -2844 c14 -49 3 -65 -35 -48 -37 17 -55 6 -78 -46 -23 -52 -35 -56 -51
-17 -16 37 -15 36 -31 20 -20 -20 -30 -55 -17 -63 16 -10 11 -25 -9 -25 -10 0
-21 -7 -25 -15 -3 -8 -10 -15 -15 -15 -5 0 -22 -5 -38 -11 -22 -8 -24 -12 -13
-19 13 -8 13 -11 -1 -26 -22 -22 -54 -5 -57 30 -1 20 3 26 19 26 15 0 19 5 15
15 -3 8 0 18 7 22 14 9 35 41 43 65 3 9 12 14 20 11 8 -3 14 -1 14 5 0 5 17
14 37 19 30 7 38 14 45 40 5 18 17 34 28 38 11 4 20 10 20 15 0 11 25 17 72
17 35 1 39 -2 50 -38z m1023 1 c11 -5 14 -9 8 -9 -8 -1 -13 -16 -13 -41 0 -22
-4 -40 -10 -40 -5 0 -10 -19 -10 -43 0 -24 -5 -48 -11 -54 -14 -14 -3 -34 14
-27 7 2 22 -4 32 -16 18 -20 18 -20 -8 -20 -19 0 -27 -6 -30 -22 l-4 -23 -8
23 c-4 12 -16 22 -26 22 -25 0 -24 -30 1 -37 23 -6 27 -43 5 -43 -8 0 -15 -9
-15 -20 0 -10 -9 -24 -20 -30 -22 -12 -90 -3 -90 11 0 4 -19 10 -42 12 -31 2
-25 4 24 5 87 3 142 26 108 47 -5 3 -10 -1 -10 -9 0 -10 -9 -16 -25 -16 -14 0
-25 4 -25 10 0 5 11 17 25 26 15 10 25 26 25 39 0 13 6 25 13 28 10 4 10 7 0
18 -19 19 -16 29 10 30 l22 2 -22 4 c-32 6 -29 25 7 45 36 21 42 67 10 75 -11
3 -20 14 -20 24 0 12 7 19 20 19 11 0 20 5 20 10 0 12 17 12 45 0z m-1970
-262 c30 -13 33 -28 5 -28 -11 0 -20 -6 -20 -14 0 -9 -15 -17 -40 -21 -39 -7
-40 -8 -40 -46 0 -47 18 -51 58 -13 15 14 35 30 45 35 14 8 17 6 17 -16 0 -22
4 -25 39 -25 43 0 51 -10 51 -65 0 -39 -18 -61 -60 -70 -22 -5 -30 -12 -30
-29 0 -23 0 -23 113 -10 57 7 63 24 7 24 -29 0 -40 4 -40 15 0 11 11 15 40 15
29 0 40 4 40 15 0 11 11 15 43 14 23 -1 34 -3 25 -6 -24 -6 -26 -83 -3 -83 10
0 15 -10 15 -34 0 -19 3 -41 6 -50 5 -13 -2 -16 -40 -16 -35 0 -46 -4 -46 -16
0 -8 -4 -12 -10 -9 -5 3 -10 23 -10 43 0 51 -10 82 -25 82 -15 0 -26 -72 -13
-81 4 -3 2 -25 -7 -48 -8 -24 -15 -59 -15 -77 0 -24 -5 -34 -15 -34 -11 0 -15
11 -15 40 l0 40 -44 0 c-27 0 -48 6 -56 15 -7 9 -19 14 -26 11 -8 -3 -18 4
-24 14 -6 11 -15 20 -19 20 -15 0 -44 -52 -33 -59 12 -8 20 -91 9 -91 -5 0 -4
-7 3 -15 10 -12 9 -15 -5 -15 -13 0 -16 6 -13 24 6 29 -18 25 -27 -5 -8 -25
-22 -24 -36 3 -8 14 -14 18 -17 10 -4 -14 -82 -17 -82 -2 0 6 -18 10 -40 10
-29 0 -40 -4 -40 -15 0 -11 -11 -15 -40 -15 -29 0 -40 4 -40 15 0 8 -4 15 -10
15 -5 0 -10 18 -10 40 0 38 -2 40 -30 40 -20 0 -30 5 -30 15 0 11 -11 15 -40
15 -39 0 -40 1 -40 34 0 29 4 36 31 45 44 15 49 14 49 -9 0 -13 7 -20 20 -20
11 0 20 4 20 9 0 23 34 41 75 41 30 0 47 5 53 16 5 9 17 14 28 11 17 -4 17 -5
-3 -12 -26 -8 -32 -45 -8 -45 8 0 15 -4 15 -10 0 -16 -27 -12 -34 5 -3 10 -19
15 -46 15 -54 0 -52 -20 3 -21 23 -1 34 -3 25 -6 -24 -6 -26 -83 -3 -83 25 0
17 -24 -15 -42 -38 -22 -38 -38 0 -38 17 0 30 5 30 13 0 6 13 19 29 28 26 15
29 23 33 74 1 31 0 62 -3 68 -3 7 -3 44 1 82 9 87 2 133 -18 137 -14 3 -13 5
2 21 12 11 33 17 67 17 37 0 49 4 49 15 0 11 11 15 39 15 24 0 41 5 44 14 3 8
30 23 59 35 29 11 45 20 36 20 -21 1 -24 21 -3 21 8 0 26 -5 40 -12z m-615
-298 c0 -5 -10 -10 -21 -10 -17 0 -20 -4 -15 -22 3 -13 6 -49 6 -80 l0 -58 35
0 c24 0 35 -5 35 -15 0 -8 -9 -15 -20 -15 -15 0 -20 -7 -20 -25 0 -14 5 -25
10 -25 6 0 10 -18 10 -40 0 -22 -4 -40 -10 -40 -5 0 -10 11 -10 25 0 23 -4 25
-40 25 l-40 0 0 45 0 45 -39 0 c-22 0 -41 -5 -43 -12 -2 -6 -10 -8 -16 -4 -17
10 -15 26 3 26 8 0 15 8 15 18 0 9 14 25 30 34 36 20 39 38 8 38 -13 0 -45 7
-73 14 l-50 14 43 7 c44 8 60 35 20 35 -38 0 -13 10 48 19 84 12 134 13 134 1z"/>
<path d="M18927 10486 c-10 -8 -15 -20 -11 -30 4 -11 -1 -19 -17 -25 -18 -7
-28 -24 -41 -67 -31 -109 -38 -141 -38 -173 0 -17 -4 -31 -10 -31 -5 0 -10
-18 -10 -39 0 -22 -5 -41 -10 -43 -14 -4 -33 -121 -31 -185 2 -47 0 -53 -18
-53 -21 0 -26 -11 -36 -75 -10 -61 -26 -108 -44 -130 -26 -32 -42 -65 -36 -75
3 -4 -6 -45 -21 -90 -14 -45 -27 -91 -28 -103 -6 -43 -19 -88 -27 -93 -5 -3
-9 -16 -9 -29 0 -13 -7 -50 -16 -82 -9 -32 -19 -74 -23 -94 -4 -19 -11 -41
-15 -48 -4 -7 -2 -26 5 -43 9 -22 9 -32 1 -37 -14 -8 -10 -57 7 -89 18 -34 74
-31 100 7 12 16 21 39 21 50 0 12 3 21 8 21 9 0 42 74 42 95 0 8 5 15 10 15 6
0 10 6 10 13 0 29 22 87 31 82 5 -4 9 2 9 12 0 29 25 90 45 113 10 11 15 20
11 20 -4 0 -2 6 5 13 10 11 39 65 108 204 17 34 45 71 61 83 17 12 30 30 30
40 0 23 48 157 66 185 7 11 20 40 29 65 9 24 20 47 25 50 6 4 5 18 -2 37 -8
22 -9 46 -2 80 8 44 7 52 -18 89 -16 23 -28 47 -28 53 0 6 -4 11 -9 11 -17 0
-20 30 -5 45 14 14 14 20 3 48 -8 18 -12 58 -11 89 2 39 -1 58 -8 58 -7 0 -27
16 -46 35 -39 40 -34 38 -57 21z"/>
<path d="M20480 9397 c0 -9 -9 -22 -20 -29 -16 -10 -20 -24 -20 -68 0 -79 -8
-100 -36 -100 -17 0 -25 -7 -30 -25 -7 -27 -32 -39 -60 -28 -16 6 -17 4 -7 -9
11 -13 7 -18 -27 -33 -44 -20 -52 -40 -19 -48 12 -3 18 -10 14 -16 -3 -6 2
-14 12 -18 10 -3 31 -19 46 -34 16 -15 43 -30 60 -33 109 -22 146 -47 57 -38
-61 6 -68 -13 -7 -22 23 -3 51 -8 62 -11 18 -5 20 -1 20 35 0 38 -2 41 -22 35
-21 -5 -22 -3 -12 19 7 14 17 22 25 19 11 -4 14 6 14 41 0 34 4 46 15 46 8 0
15 5 15 10 0 6 -7 10 -15 10 -12 0 -15 18 -16 98 -2 144 -6 173 -29 196 -18
18 -20 18 -20 3z"/>
<path d="M19500 8788 c0 -4 5 -19 12 -33 10 -22 9 -28 -3 -35 -10 -7 -14 -29
-14 -79 0 -64 12 -103 22 -73 3 7 22 12 45 12 l40 0 -8 68 c-3 37 -11 69 -15
70 -15 6 -10 42 6 48 8 4 15 12 15 20 0 10 -14 13 -50 11 -27 -1 -50 -5 -50
-9z"/>
<path d="M19282 8672 c-13 -2 -26 -10 -29 -18 -3 -8 -12 -14 -20 -14 -11 0
-13 -5 -7 -17 4 -10 7 -44 6 -75 -2 -42 2 -62 15 -77 27 -32 33 -26 34 32 l1
52 10 -37 c7 -27 15 -38 29 -38 16 0 19 7 19 40 0 22 5 40 10 40 19 0 10 28
-10 33 -20 5 -29 47 -10 47 13 0 2 27 -13 32 -7 2 -22 2 -35 0z"/>
<path d="M23350 9033 c0 -9 -16 -13 -45 -13 -25 0 -53 -4 -63 -10 -9 -5 -44
-12 -77 -16 -56 -6 -58 -7 -30 -16 17 -5 54 -9 84 -9 31 1 61 -5 70 -12 21
-18 114 -47 174 -54 26 -3 50 -10 53 -14 3 -5 23 -9 45 -9 21 0 39 -4 39 -9 0
-5 16 -12 36 -16 33 -6 102 -33 114 -45 3 -3 16 -5 30 -6 14 0 32 -2 40 -4 8
-1 34 -2 58 -1 36 1 42 4 42 22 0 19 -4 20 -40 14 -32 -5 -40 -4 -40 8 0 9 6
17 13 20 6 2 8 8 4 13 -4 5 -12 2 -17 -5 -6 -11 -14 -10 -38 8 -17 11 -37 21
-44 21 -8 0 -23 8 -32 19 -9 10 -38 24 -64 31 -26 6 -63 18 -82 25 -19 8 -42
13 -50 13 -30 -2 -165 34 -172 45 -6 9 -8 9 -8 0z"/>
<path d="M22690 8603 c0 -10 6 -25 13 -32 10 -11 6 -13 -21 -7 -37 7 -38 6
-46 -74 -6 -64 -2 -75 39 -84 22 -5 26 -4 15 4 -8 5 -13 10 -10 11 3 0 14 2
25 3 80 10 96 17 91 39 -3 12 -3 16 0 9 5 -10 9 -10 20 -1 19 15 18 55 -1 63
-8 3 -15 15 -15 26 0 11 -5 20 -12 20 -6 0 -19 6 -27 14 -9 8 -28 18 -43 21
-23 6 -28 4 -28 -12z"/>
<path d="M23670 7834 c-19 -7 -43 -13 -52 -13 -10 -1 -18 -5 -18 -9 0 -11 69
-44 79 -37 5 2 13 -6 19 -19 7 -16 22 -25 50 -29 22 -4 46 -14 53 -23 8 -10
28 -24 44 -31 61 -30 75 -38 75 -45 0 -5 9 -8 20 -8 12 0 31 -6 43 -14 12 -8
51 -24 87 -36 35 -12 76 -28 91 -36 15 -7 35 -11 43 -8 9 3 16 2 16 -4 0 -5
21 -13 48 -17 26 -4 61 -13 79 -20 17 -7 62 -16 100 -20 37 -3 99 -14 136 -22
52 -12 76 -13 102 -6 19 6 35 7 37 2 4 -10 95 -15 104 -6 8 7 -15 10 -52 8
-14 -2 -23 5 -27 18 -3 13 -13 21 -26 21 -12 0 -21 5 -21 11 0 6 -8 8 -17 5
-10 -3 -31 1 -47 9 -15 8 -35 15 -42 15 -8 0 -25 6 -37 14 -12 8 -53 22 -92
31 -38 9 -79 20 -90 24 -11 5 -31 13 -45 18 -14 6 -54 24 -90 41 -146 68 -178
81 -235 98 -33 10 -66 26 -72 35 -8 10 -39 21 -80 29 -36 6 -74 15 -84 21 -12
6 -20 5 -24 -1 -4 -6 -11 -8 -16 -4 -5 3 -7 10 -4 15 8 12 -12 10 -55 -7z"/>
<path d="M22917 5836 c-9 -9 -20 -16 -25 -16 -13 0 -56 -49 -49 -56 12 -12
-13 -43 -29 -37 -18 7 -49 -20 -68 -58 -18 -37 -18 -162 1 -206 8 -19 12 -37
9 -40 -9 -10 87 -173 129 -219 75 -82 98 -104 103 -100 3 3 11 1 19 -6 7 -6
17 -8 21 -4 4 4 -1 14 -11 21 -13 10 -15 14 -5 18 16 6 -39 67 -60 67 -11 0
-12 3 -3 13 8 10 4 20 -18 41 -16 16 -27 34 -25 41 3 7 -4 22 -16 33 -12 11
-19 25 -16 30 3 6 2 12 -3 14 -4 1 -12 29 -15 61 -6 47 -5 57 7 57 9 0 18 -13
22 -30 4 -16 11 -30 15 -30 5 0 15 -18 21 -40 7 -22 18 -45 25 -51 7 -6 10
-18 7 -27 -3 -9 -3 -14 2 -10 4 4 14 3 21 -3 21 -18 38 0 19 21 -9 10 -15 21
-14 26 1 5 -3 23 -10 39 -7 17 -15 45 -17 64 -3 19 -16 46 -31 60 -43 43 -56
69 -49 96 5 18 0 35 -14 55 -21 30 -26 50 -11 50 17 0 41 -31 41 -51 0 -11 7
-22 15 -25 8 -4 12 -10 9 -15 -6 -11 27 -69 39 -69 5 0 7 -6 5 -12 -3 -7 3
-21 13 -31 17 -18 18 -18 28 1 14 26 14 59 1 67 -14 8 -13 25 1 25 14 0 59
-47 59 -62 0 -5 11 -19 24 -29 13 -10 26 -33 29 -51 5 -39 21 -83 54 -157 19
-40 27 -50 34 -40 6 10 9 2 9 -23 0 -31 4 -38 19 -38 11 0 22 -9 26 -19 3 -10
17 -22 30 -25 14 -4 25 -12 25 -20 0 -18 27 -39 80 -61 58 -25 67 -35 75 -79
7 -36 31 -49 41 -22 3 8 13 12 25 9 27 -8 24 -23 -6 -23 -25 0 -33 -14 -15
-25 6 -3 10 -18 11 -33 0 -15 3 -21 6 -14 2 6 18 12 35 12 31 0 50 13 61 43 4
11 2 17 -8 17 -8 0 -15 6 -15 13 0 7 -9 18 -20 25 -25 15 -26 42 -2 42 16 1
16 1 0 11 -10 5 -18 17 -18 26 0 10 -6 14 -20 10 -15 -4 -20 0 -20 14 0 10 -6
19 -12 19 -16 1 -49 65 -42 83 3 8 -2 20 -11 27 -8 7 -15 21 -15 31 0 11 -7
19 -15 19 -11 0 -15 11 -15 40 0 34 -3 40 -21 40 -12 0 -23 8 -26 20 -3 10
-14 22 -24 25 -10 4 -19 13 -19 21 0 8 -9 23 -20 34 -11 11 -20 29 -20 40 0
11 -5 20 -11 20 -13 0 -69 58 -69 72 0 6 -11 23 -25 40 -14 16 -25 35 -25 41
-1 7 -14 23 -30 37 -35 28 -37 36 -12 44 9 3 -3 3 -28 1 -32 -4 -39 -2 -25 4
18 8 19 9 3 16 -11 4 -18 18 -18 36 0 16 -4 29 -10 29 -5 0 -10 -5 -10 -11 0
-8 -4 -8 -12 -1 -25 20 -75 24 -91 8z"/>
<path d="M20268 5730 c-16 -16 -28 -39 -28 -54 0 -24 4 -26 40 -26 36 0 40 -2
40 -25 0 -20 5 -25 26 -25 31 0 53 -25 54 -57 0 -14 6 -23 15 -23 11 0 15 11
15 40 0 36 3 40 25 40 20 0 25 5 25 25 0 14 -5 25 -10 25 -6 0 -22 -11 -36
-25 -37 -37 -54 -33 -54 14 0 22 5 43 10 46 19 12 -1 25 -36 25 -49 0 -42 18
9 23 l42 4 -42 1 c-24 1 -43 7 -43 12 0 18 -24 8 -52 -20z"/>
</g>
</svg>
